<svg xmlns="http://www.w3.org/2000/svg" xmlns:xlink="http://www.w3.org/1999/xlink" width="48" height="48"><defs><linearGradient xlink:href="#a" id="h" x1="21.143" x2="5.598" y1="30.214" y2="37.357" gradientTransform="translate(43.365 352.983)" gradientUnits="userSpaceOnUse"/><linearGradient id="a"><stop offset="0" style="stop-color:#4579ef;stop-opacity:1"/><stop offset="1" style="stop-color:#245cff;stop-opacity:1"/></linearGradient><linearGradient xlink:href="#b" id="i" x1="42" x2="30" y1="24.143" y2="29.429" gradientTransform="translate(43.365 352.983)" gradientUnits="userSpaceOnUse"/><linearGradient id="b"><stop offset="0" style="stop-color:#fffaef;stop-opacity:1"/><stop offset="1" style="stop-color:#fff0e3;stop-opacity:1"/></linearGradient><linearGradient xlink:href="#b" id="j" x1="42" x2="30" y1="24.143" y2="29.429" gradientTransform="translate(21.722 352.983)" gradientUnits="userSpaceOnUse"/><linearGradient xlink:href="#b" id="k" x1="-15.953" x2="-21.893" y1="14.571" y2="18.122" gradientTransform="translate(73.747 357.237)" gradientUnits="userSpaceOnUse"/><linearGradient xlink:href="#b" id="m" x1="-19.203" x2="-22.454" y1="11.46" y2="12.174" gradientTransform="matrix(.923 0 0 1 73.09 356.951)" gradientUnits="userSpaceOnUse"/><linearGradient xlink:href="#b" id="q" x1="-11.817" x2="-24.916" y1="16.889" y2="19.758" gradientTransform="matrix(.923 0 0 1 33.153 6.623)" gradientUnits="userSpaceOnUse"/><linearGradient xlink:href="#c" id="s" x1="27.087" x2="22.293" y1="12.718" y2="11.665" gradientTransform="matrix(.89945 .43702 -.39413 .91905 46.357 353.173)" gradientUnits="userSpaceOnUse"/><linearGradient id="c"><stop offset="0" style="stop-color:#e7d4b6;stop-opacity:.779661"/><stop offset="1" style="stop-color:#ffd49e;stop-opacity:0"/></linearGradient><linearGradient xlink:href="#d" id="t" x1="-33.436" x2="-15.993" y1="53.579" y2="44.786" gradientTransform="matrix(.53974 0 0 .73448 1.749 13.321)" gradientUnits="userSpaceOnUse"/><linearGradient id="d"><stop offset="0" style="stop-color:#e1fdff;stop-opacity:1"/><stop offset="1" style="stop-color:#fff;stop-opacity:.99152541"/></linearGradient><linearGradient xlink:href="#e" id="u" x1="-12.684" x2="-12.823" y1="29.678" y2="30.291" gradientUnits="userSpaceOnUse"/><linearGradient id="e"><stop offset="0" style="stop-color:#63fdff;stop-opacity:1"/><stop offset="1" style="stop-color:#70d2ff;stop-opacity:.99215686"/></linearGradient><linearGradient xlink:href="#e" id="v" x1="-15.663" x2="-12.156" y1="25.322" y2="25.322" gradientTransform="translate(-.16 -.01)" gradientUnits="userSpaceOnUse"/><linearGradient xlink:href="#e" id="w" x1="-13.03" x2="-10.52" y1="25.744" y2="25.744" gradientTransform="translate(-.06 .27)" gradientUnits="userSpaceOnUse"/><linearGradient xlink:href="#f" id="x" x1="-12.823" x2="-13.259" y1="29.71" y2="29.824" gradientTransform="translate(-.006)" gradientUnits="userSpaceOnUse"/><linearGradient id="f"><stop offset="0" style="stop-color:#63fdff;stop-opacity:0"/><stop offset="1" style="stop-color:#70d2ff;stop-opacity:.66949153"/></linearGradient><linearGradient xlink:href="#e" id="y" x1="-13.896" x2="-11.697" y1="28.584" y2="28.584" gradientTransform="matrix(1.06227 0 0 1.16185 .756 -4.19)" gradientUnits="userSpaceOnUse"/><linearGradient xlink:href="#g" id="z" x1="-12.297" x2="-13.391" y1="28.584" y2="28.926" gradientTransform="matrix(1.06227 0 0 1.16185 .74 -4.2)" gradientUnits="userSpaceOnUse"/><linearGradient id="g"><stop offset="0" style="stop-color:#63fdff;stop-opacity:0"/><stop offset="1" style="stop-color:#366eba;stop-opacity:.56862748"/></linearGradient><linearGradient xlink:href="#g" id="A" x1="-12.232" x2="-12.797" y1="28.459" y2="29.208" gradientTransform="matrix(1.06227 0 0 1.16185 .727 -4.213)" gradientUnits="userSpaceOnUse"/><linearGradient xlink:href="#b" id="o" x1="-11.817" x2="-24.916" y1="16.889" y2="19.758" gradientTransform="matrix(.923 0 0 1 33.153 6.623)" gradientUnits="userSpaceOnUse"/><filter id="l" width="1.284" height="1.174" x="-.167" y="-.072" color-interpolation-filters="sRGB"><feGaussianBlur in="SourceAlpha" result="blur" stdDeviation="1"/><feColorMatrix result="bluralpha" values="1 0 0 0 0 0 1 0 0 0 0 0 1 0 0 0 0 0 0.500000 0"/><feOffset dx="-1" dy="1" in="bluralpha" result="offsetBlur"/><feMerge><feMergeNode in="offsetBlur"/><feMergeNode in="SourceGraphic"/></feMerge></filter><filter id="n" width="1.323" height="1.166" x="-.189" y="-.069" color-interpolation-filters="sRGB"><feGaussianBlur in="SourceAlpha" result="blur" stdDeviation="1"/><feColorMatrix result="bluralpha" values="1 0 0 0 0 0 1 0 0 0 0 0 1 0 0 0 0 0 0.500000 0"/><feOffset dx="-1" dy="1" in="bluralpha" result="offsetBlur"/><feMerge><feMergeNode in="offsetBlur"/><feMergeNode in="SourceGraphic"/></feMerge></filter><filter id="p" width="1.305" height="1.192" x="-.179" y="-.079" color-interpolation-filters="sRGB"><feGaussianBlur in="SourceAlpha" result="blur" stdDeviation="1"/><feColorMatrix result="bluralpha" values="1 0 0 0 0 0 1 0 0 0 0 0 1 0 0 0 0 0 0.500000 0"/><feOffset dx="-1" dy="1" in="bluralpha" result="offsetBlur"/><feMerge><feMergeNode in="offsetBlur"/><feMergeNode in="SourceGraphic"/></feMerge></filter><filter id="r" width="1.316" height="1.19" x="-.185" y="-.079" color-interpolation-filters="sRGB"><feGaussianBlur in="SourceAlpha" result="blur" stdDeviation="1"/><feColorMatrix result="bluralpha" values="1 0 0 0 0 0 1 0 0 0 0 0 1 0 0 0 0 0 0.500000 0"/><feOffset dx="-1" dy="1" in="bluralpha" result="offsetBlur"/><feMerge><feMergeNode in="offsetBlur"/><feMergeNode in="SourceGraphic"/></feMerge></filter></defs><g transform="matrix(1.00024 0 0 1.00575 -43.914 -352.598)"><path d="M69.084 363.046c-.357 0-.657.3-.657.656v.219h-1.5c0-.357-.268-.657-.625-.657H46.584c-.357 0-.657.3-.657.657v28.28c0 .357.3.626.657.626h19.125c0 .356.3.656.656.656h2.562c.357 0 .657-.3.657-.656v-.188h19.218c.357 0 .625-.3.625-.656v-28.281c0-.356-.268-.656-.625-.656z" style="fill:url(#h);fill-opacity:1;stroke:#364cff;stroke-width:0;stroke-linecap:butt;stroke-linejoin:miter;stroke-miterlimit:4;stroke-dasharray:none;stroke-dashoffset:0;stroke-opacity:1"/><rect width="20.429" height="29.143" x="68.365" y="362.555" ry="0" style="fill:url(#i);fill-opacity:1;stroke:#fff0e3;stroke-width:0;stroke-linecap:butt;stroke-linejoin:miter;stroke-miterlimit:4;stroke-dasharray:none;stroke-dashoffset:0;stroke-opacity:1"/><rect width="20.429" height="29.143" x="46.722" y="362.555" ry="0" style="fill:url(#j);fill-opacity:1;stroke:#fff0e3;stroke-width:0;stroke-linecap:butt;stroke-linejoin:miter;stroke-miterlimit:4;stroke-dasharray:none;stroke-dashoffset:0;stroke-opacity:1"/><path d="M67.965 391.987h.032V362.77h-.032zM47.59 360.434c8.841-4.933 20.313 2.428 20.313 2.428v29.031s-11.5-6.042-20.313-2.428z" style="color:#000;font-style:normal;font-variant:normal;font-weight:400;font-stretch:normal;font-size:medium;line-height:normal;font-family:&quot;Bitstream Vera Sans&quot;;-inkscape-font-specification:&quot;Bitstream Vera Sans&quot;;text-indent:0;text-align:start;text-decoration:none;text-decoration-line:none;letter-spacing:normal;word-spacing:normal;text-transform:none;writing-mode:lr-tb;direction:ltr;text-anchor:start;display:inline;overflow:visible;visibility:visible;fill:url(#k);fill-opacity:1;fill-rule:nonzero;stroke:none;stroke-width:0;marker:none;filter:url(#l);enable-background:accumulate"/><path d="M67.753 391.701h.03v-29.218h-.03zm-17.948-33.41c7.402-5.362 17.89 4.285 17.89 4.285v29.032s-9.339-9.043-17.89-4.286z" style="color:#000;font-style:normal;font-variant:normal;font-weight:400;font-stretch:normal;font-size:medium;line-height:normal;font-family:&quot;Bitstream Vera Sans&quot;;-inkscape-font-specification:&quot;Bitstream Vera Sans&quot;;text-indent:0;text-align:start;text-decoration:none;text-decoration-line:none;letter-spacing:normal;word-spacing:normal;text-transform:none;writing-mode:lr-tb;direction:ltr;text-anchor:start;display:inline;overflow:visible;visibility:visible;fill:url(#m);fill-opacity:1;fill-rule:nonzero;stroke:none;stroke-width:0;marker:none;filter:url(#n);enable-background:accumulate"/><path d="M27.817 41.374h.029V12.155h-.029zM8.8 11.962c10.21-1.933 18.96.285 18.96.285V41.28s-8.002-2.472-18.96-.286z" style="color:#000;font-style:normal;font-variant:normal;font-weight:400;font-stretch:normal;font-size:medium;line-height:normal;font-family:&quot;Bitstream Vera Sans&quot;;-inkscape-font-specification:&quot;Bitstream Vera Sans&quot;;text-indent:0;text-align:start;text-decoration:none;text-decoration-line:none;letter-spacing:normal;word-spacing:normal;text-transform:none;writing-mode:lr-tb;direction:ltr;text-anchor:start;display:inline;overflow:visible;visibility:visible;fill:url(#o);fill-opacity:1;fill-rule:nonzero;stroke:none;stroke-width:0;marker:none;filter:url(#p);enable-background:accumulate" transform="matrix(-1.0687 0 0 1 97.517 350.555)"/><path d="M27.817 41.374h.029V12.155h-.029zm-18.35-29.84c10.21-1.933 18.159.714 18.159.714V41.28s-7.201-2.9-18.159-.715z" style="color:#000;font-style:normal;font-variant:normal;font-weight:400;font-stretch:normal;font-size:medium;line-height:normal;font-family:&quot;Bitstream Vera Sans&quot;;-inkscape-font-specification:&quot;Bitstream Vera Sans&quot;;text-indent:0;text-align:start;text-decoration:none;text-decoration-line:none;letter-spacing:normal;word-spacing:normal;text-transform:none;writing-mode:lr-tb;direction:ltr;text-anchor:start;display:inline;overflow:visible;visibility:visible;fill:url(#q);fill-opacity:1;fill-rule:nonzero;stroke:none;stroke-width:0;marker:none;filter:url(#r);enable-background:accumulate" transform="matrix(-1.0687 0 0 1 97.66 350.282)"/><path d="m65.227 363.224 4.339 4.533s-3.797 7.195-6.25 15.887c-5.098-2.271-5.11-1.984-6.122-1.688z" style="fill:url(#s);fill-opacity:1;stroke:none"/><path d="M-16.219 28.625v21.75h6.875v-21.75zm3.282.813c.76 0 1.374.575 1.374 1.28S-12.175 32-12.936 32s-1.376-.576-1.376-1.281c0-.706.614-1.282 1.376-1.282z" style="fill:url(#t);fill-opacity:1;stroke:#8d97ff;stroke-width:.252;stroke-linecap:butt;stroke-linejoin:round;stroke-miterlimit:4;stroke-dasharray:none;stroke-dashoffset:0;stroke-opacity:1" transform="rotate(25.578 -701.64 374.442)"/><path d="m-12.25 29.445-1.17.006c-.054.557.158 1.206.616.989.478.236.655-.459.555-.995" style="fill:url(#u);fill-opacity:1;stroke:none" transform="rotate(25.578 -701.64 374.442)"/><path d="m-12.553 28.363-1.786-6.269-1.246.916 2.118 5.52" style="fill:url(#v);fill-opacity:1;stroke:none" transform="rotate(25.578 -701.64 374.442)"/><path d="m-12.416 29.176 1.599-5.714-1.163-.61-.872 5.354" style="fill:url(#w);fill-opacity:1;stroke:none" transform="rotate(25.578 -701.64 374.442)"/><path d="m-12.255 29.445-1.17.006c.085.696.258 1.096.616.988.337.177.534-.348.554-.994" style="fill:url(#x);fill-opacity:1;stroke:none" transform="rotate(25.578 -701.64 374.442)"/><path d="M-13.753 29.615v-1.32h1.83v1.45h-1.698v-.097" style="fill:url(#y);fill-opacity:1;stroke:none" transform="rotate(25.578 -701.64 374.442)"/><path d="M-13.77 29.605v-1.321h1.831v1.45h-1.698v-.096" style="fill:url(#z);fill-opacity:1;stroke:none" transform="rotate(25.578 -701.64 374.442)"/><path d="M-13.782 29.593V28.27h1.83v1.45h-1.698v-.096" style="fill:url(#A);fill-opacity:1;stroke:none" transform="rotate(25.578 -701.64 374.442)"/><text xml:space="preserve" x="78.494" y="369.452" style="font-style:normal;font-weight:400;line-height:0%;font-family:&quot;Bitstream Vera Sans&quot;;writing-mode:tb-rl;fill:#000;fill-opacity:1;stroke:none" transform="scale(1.01808 .98224)"><tspan x="78.494" y="369.452" style="font-size:13.1888px;line-height:1.25">見る</tspan></text></g></svg>