<svg xmlns="http://www.w3.org/2000/svg" xmlns:xlink="http://www.w3.org/1999/xlink" width="382.89" height="177.33" viewBox="0 0 177.88 82.39"><defs><pattern xlink:href="#a" id="b" patternTransform="matrix(.35278 0 0 -.35278 -60.35 23.87)"/><pattern id="a" width="108" height="126" x="0" y="0" patternTransform="translate(0 500)" patternUnits="userSpaceOnUse"><path d="M0 0c.1-.15-.28-.57-.48-.75-1.05-.96-3.09-.43-3.93-.16a7.4 7.4 0 0 0 .05-4.79 7.4 7.4 0 0 0-3.69-4.29 6 6 0 0 0-4.6-.34 6 6 0 0 0-3.48 3.01c-1.24 2.46.43 6.24 2.17 6.6.38.07.9.02 1.32-.25.45-.29.94-.94.74-1.48-.17-.45-.73-.65-1.15-.67-.79-.02-1.07.64-1.5.56-.74-.14-1.52-2.52-.69-4.31 1.06-2.3 4.6-3.3 6.74-2.23a6.4 6.4 0 0 1 3.19 3.71A6.4 6.4 0 0 1-5.67-.5a8.13 8.13 0 0 1-10.91 3.59 10.2 10.2 0 0 1-5.13-5.96c-.86-2.6-.65-5.39.58-7.84a13 13 0 0 1 7.52-6.48 13 13 0 0 1 9.9.74.5.5 0 0 0 .45-.9 14 14 0 0 0-10.66-.79 14 14 0 0 0-8.1 6.98 11 11 0 0 0-.73 8.29l-.11.23c0 7.16-5.81 12.98-12.97 12.98A10.3 10.3 0 0 1-46.1.06a8.13 8.13 0 0 1 8.12-8.12q.78 0 1.5.18l.24.07a6.4 6.4 0 0 1 4.66 6.14c0 2.59-2.64 4.76-5.02 5.02-1.44.16-3.27-.34-4-1.46-.07-.11-.49-.76-.26-1.13.22-.34.82-.13 1.13-.55.22-.29.17-.7.05-.96-.26-.6-1.12-.87-1.63-.66-.8.33-1.01 2.03-.57 3.18.72 1.85 3.29 2.75 5.28 2.58 2.97-.25 6.02-2.93 6.02-6.02 0-1.41-.4-2.73-1.11-3.86a5 5 0 0 0 3.24.08 5.7 5.7 0 0 0 3.41-2.82c.61-1.13.76-2.44.44-3.69a4.8 4.8 0 0 0-2.14-2.94q-.66-.4-1.37-.49c-.68-.09-1.2.04-1.48.11-.76.2-1.25.56-1.36.64-.42.3-.8.59-.96 1.12-.04.13-.24.78.12 1.23.25.29.72.48 1.04.27.4-.26.28-1 .27-1.05-.06-.37-.23-.42-.21-.59.07-.58 2.07-1.28 3.54-.48.6.33.98.85 1.11 1.02a4.2 4.2 0 0 1 .28 4.42 5 5 0 0 1-2.91 2.4 4.5 4.5 0 0 1-3.64-.48q-.19-.1-.36-.02a7 7 0 0 0-2.87-1.84c1.4-3.22 1.53-6.79.37-10.12a14 14 0 0 0-4.28-6.18q.15-.37.23-.93c2.27-7.72 9.33-11.91 15.05-10.49 4.9 1.21 9.25 6.66 8.31 11.93a8.13 8.13 0 0 1-9.43 6.56 6.4 6.4 0 0 1-5.17-7.42c.46-2.55 3.43-4.22 5.82-4.06 1.45.1 3.16.91 3.68 2.15.05.12.35.83.06 1.15s-.83-.01-1.21.35c-.26.24-.29.66-.22.93.15.64.95 1.06 1.49.94.85-.19 1.35-1.81 1.12-3.03-.38-1.94-2.75-3.28-4.74-3.47-2.96-.28-6.44 1.82-6.98 4.86a7.4 7.4 0 0 0 5.97 8.59 9.14 9.14 0 0 0 10.59-7.37 11.3 11.3 0 0 0-9.11-13.09c-2.78-.5-5.76.22-5.76.22l-.61.15c1.08-1 1.55-2.4 1.2-3.62-.46-1.57-2.17-2.51-2.44-2.28-.11.09-.07.45.7 1.74-.37.03-.47.18-.49.23-.15.28.15.83.84 1.32-.21.1-.46.27-.47.48 0 .24.3.35.42.58.15.27.11.79-.76 1.87l-.64.24c-.58.25-2.83 1.24-4.93 3.58q-.2.21-.45.51c-.55-.34-1.47-.75-1.75-.88 0 0-1.82-.84-3.99-2.38-.74-.51-2.1-1.49-3.41-3.14-.71-.89-1.9-2.41-2.46-4.72a12 12 0 0 1-.29-3.38 8.6 8.6 0 0 1 3.01-6 8.8 8.8 0 0 1 6.43-2.07 7.1 7.1 0 0 1 6.53 7.49 5.3 5.3 0 0 1-1.87 3.73 5.5 5.5 0 0 1-4.01 1.3c-2.05-.17-4.25-2.48-4.03-4.63.17-1.68 1.79-3.07 2.41-2.85.35.13.27.74.87 1.08.32.17.82.27 1.14.02.4-.31.31-1 .11-1.41-.2-.39-.56-.66-.87-.77-1.46-.52-4.36 1.51-4.52 3.86a5.2 5.2 0 0 0 1.27 3.75 5.3 5.3 0 0 0 3.57 1.8c1.7.13 3.34-.4 4.62-1.49a6.2 6.2 0 0 0 2.07-3.53c.5.57 1.78 1.86 2.99 1.63.23-.04.68-.19.68-.34-.01-.17-.61-.29-1.13-.36.4-.16.48-.25.47-.3-.03-.13-.78.04-1.48-.18a2.8 2.8 0 0 1-1.43-1.24c.04-.74.05-2.99-1.49-5.11a8.5 8.5 0 0 0-9.6-2.87 10 10 0 0 0-3.29 1.84 9.4 9.4 0 0 0-3.31 6.59q-.11 1.86.31 3.64c.61 2.47 1.88 4.1 2.65 5.07 1.16 1.47 2.27 2.34 3.34 3.18a28 28 0 0 0 5.83 3.48 13 13 0 0 0-2.2 5.46q-.09.22-.13.43-.91-.63-1.93-1.13a11.3 11.3 0 0 0-15.07 5.23 9.7 9.7 0 0 0-.07 7.74 9.4 9.4 0 0 0 4.31 4.45c.31.57.6 1.33.42 2.14-.18.83-.8 1.48-.68 1.59.04.04.17.01.58-.3-.23.56-.47 1.23-.3 1.34.15.1.56-.29.74-.48.95-1.08.38-3.1.1-3.94A7.3 7.3 0 0 0-47.45-9a7.4 7.4 0 0 0 4.23-3.77 6 6 0 0 0 .27-4.59 6 6 0 0 0-3.06-3.44c-2.48-1.21-6.24.53-6.57 2.28-.07.38-.01.9.27 1.31.3.44.95.93 1.49.71.44-.17.64-.73.65-1.15.01-.79-.65-1.07-.58-1.49.13-.75 2.5-1.56 4.3-.76 2.31 1.02 3.37 4.55 2.33 6.7a6.4 6.4 0 0 1-3.66 3.25 6.4 6.4 0 0 1-4.89-.28 8.13 8.13 0 0 1-3.77-10.85 10.24 10.24 0 0 1 13.73-4.77 13 13 0 0 1 6.6 7.42c1.09 3.14.95 6.5-.4 9.52q-.72-.15-1.47-.15A9.13 9.13 0 0 0-47.1.06c0 5.65 4.17 10.34 9.59 11.15a12 12 0 0 0-3.86 4.12 13.5 13.5 0 0 0-1.89 5.55l-.04.66c-.75 1.1-1.21 1.29-1.5 1.23-.25-.06-.43-.3-.65-.23-.19.07-.27.35-.31.57-.64-.5-1.24-.62-1.45-.4-.04.03-.14.16-.07.52-1.41-.35-1.75-.28-1.8-.16-.14.31 1.22 1.63 2.79 1.6 1.22-.02 2.37-.84 2.99-2.12l.03.6s.18 2.95 1.43 5.37a10.87 10.87 0 0 0 14.61 4.71 8.8 8.8 0 0 0 3.76-11.83 7.13 7.13 0 0 0-9.58-3.09c-2.64 1.36-3.58 5.15-2.48 7.81.73 1.77 2.64 3.58 4.53 3.38 1.18-.12 2.53-1.05 2.46-1.88-.04-.53-.65-1.15-1.28-1.11-.27.01-.65.16-.8.46-.22.45.23.88.03 1.22-.21.36-.95.28-1.08.27-1.28-.13-2.51-1.48-3.01-2.78-.83-2.16-.14-5.37 2.07-6.51a6.17 6.17 0 0 1 8.29 2.67 7.83 7.83 0 0 1-3.36 10.53 9.9 9.9 0 0 1-13.31-4.29 12.5 12.5 0 0 1 5.22-16.74 16 16 0 0 0 6.14-1.5c-.88 1.18-1.09 2.64-.53 3.78.72 1.47 2.58 2.09 2.8 1.82.09-.11-.01-.45-1-1.59.36-.1.43-.26.44-.31.1-.3-.29-.8-1.05-1.15.18-.14.4-.35.37-.56-.04-.24-.35-.29-.52-.5-.19-.24-.24-.75.43-1.97l.58-.35c.53-.35 2.57-1.72 4.22-4.39a13 13 0 0 0 1.96-5.45 11.4 11.4 0 0 0 4.9 4.82c.76.35 4.1 1.77 7.74.19A9.4 9.4 0 0 0-4.78-.05a3 3 0 0 1 2.16-.39c.82.19 1.46.83 1.57.71.04-.05.01-.18-.29-.59C-.79-.08-.11.17 0 0" style="fill:#000;fill-opacity:1;fill-rule:nonzero;stroke:none" transform="translate(159.97 17.26)"/><path d="M0 0c.1-.15-.28-.57-.48-.75-1.05-.96-3.09-.43-3.93-.16a7.4 7.4 0 0 0 .05-4.79 7.4 7.4 0 0 0-3.69-4.29 6 6 0 0 0-4.6-.34 6 6 0 0 0-3.48 3.01c-1.24 2.46.43 6.24 2.17 6.6.38.07.9.02 1.32-.25.45-.29.94-.94.74-1.48-.17-.45-.73-.65-1.15-.67-.79-.02-1.07.64-1.5.56-.74-.14-1.52-2.52-.69-4.31 1.06-2.3 4.6-3.3 6.74-2.23a6.4 6.4 0 0 1 3.19 3.71A6.4 6.4 0 0 1-5.67-.5a8.13 8.13 0 0 1-10.91 3.59 10.2 10.2 0 0 1-5.13-5.96c-.86-2.6-.65-5.39.58-7.84a13 13 0 0 1 7.52-6.48 13 13 0 0 1 9.9.74.5.5 0 0 0 .45-.9 14 14 0 0 0-10.66-.79 14 14 0 0 0-8.1 6.98 11 11 0 0 0-.73 8.29l-.11.23c0 7.16-5.81 12.98-12.97 12.98A10.3 10.3 0 0 1-46.1.06a8.13 8.13 0 0 1 8.12-8.12q.78 0 1.5.18l.24.07a6.4 6.4 0 0 1 4.66 6.14c0 2.59-2.64 4.76-5.02 5.02-1.44.16-3.27-.34-4-1.46-.07-.11-.49-.76-.26-1.13.22-.34.82-.13 1.13-.55.22-.29.17-.7.05-.96-.26-.6-1.12-.87-1.63-.66-.8.33-1.01 2.03-.57 3.18.72 1.85 3.29 2.75 5.28 2.58 2.97-.25 6.02-2.93 6.02-6.02 0-1.41-.4-2.73-1.11-3.86a5 5 0 0 0 3.24.08 5.7 5.7 0 0 0 3.41-2.82c.61-1.13.76-2.44.44-3.69a4.8 4.8 0 0 0-2.14-2.94q-.66-.4-1.37-.49c-.68-.09-1.2.04-1.48.11-.76.2-1.25.56-1.36.64-.42.3-.8.59-.96 1.12-.04.13-.24.78.12 1.23.25.29.72.48 1.04.27.4-.26.28-1 .27-1.05-.06-.37-.23-.42-.21-.59.07-.58 2.07-1.28 3.54-.48.6.33.98.85 1.11 1.02a4.2 4.2 0 0 1 .28 4.42 5 5 0 0 1-2.91 2.4 4.5 4.5 0 0 1-3.64-.48q-.19-.1-.36-.02a7 7 0 0 0-2.87-1.84c1.4-3.22 1.53-6.79.37-10.12a14 14 0 0 0-4.28-6.18q.15-.37.23-.93c2.27-7.72 9.33-11.91 15.05-10.49 4.9 1.21 9.25 6.66 8.31 11.93a8.13 8.13 0 0 1-9.43 6.56 6.4 6.4 0 0 1-5.17-7.42c.46-2.55 3.43-4.22 5.82-4.06 1.45.1 3.16.91 3.68 2.15.05.12.35.83.06 1.15s-.83-.01-1.21.35c-.26.24-.29.66-.22.93.15.64.95 1.06 1.49.94.85-.19 1.35-1.81 1.12-3.03-.38-1.94-2.75-3.28-4.74-3.47-2.96-.28-6.44 1.82-6.98 4.86a7.4 7.4 0 0 0 5.97 8.59 9.14 9.14 0 0 0 10.59-7.37 11.3 11.3 0 0 0-9.11-13.09c-2.78-.5-5.76.22-5.76.22l-.61.15c1.08-1 1.55-2.4 1.2-3.62-.46-1.57-2.17-2.51-2.44-2.28-.11.09-.07.45.7 1.74-.37.03-.47.18-.49.23-.15.28.15.83.84 1.32-.21.1-.46.27-.47.48 0 .24.3.35.42.58.15.27.11.79-.76 1.87l-.64.24c-.58.25-2.83 1.24-4.93 3.58q-.2.21-.45.51c-.55-.34-1.47-.75-1.75-.88 0 0-1.82-.84-3.99-2.38-.74-.51-2.1-1.49-3.41-3.14-.71-.89-1.9-2.41-2.46-4.72a12 12 0 0 1-.29-3.38 8.6 8.6 0 0 1 3.01-6 8.8 8.8 0 0 1 6.43-2.07 7.1 7.1 0 0 1 6.53 7.49 5.3 5.3 0 0 1-1.87 3.73 5.5 5.5 0 0 1-4.01 1.3c-2.05-.17-4.25-2.48-4.03-4.63.17-1.68 1.79-3.07 2.41-2.85.35.13.27.74.87 1.08.32.17.82.27 1.14.02.4-.31.31-1 .11-1.41-.2-.39-.56-.66-.87-.77-1.46-.52-4.36 1.51-4.52 3.86a5.2 5.2 0 0 0 1.27 3.75 5.3 5.3 0 0 0 3.57 1.8c1.7.13 3.34-.4 4.62-1.49a6.2 6.2 0 0 0 2.07-3.53c.5.57 1.78 1.86 2.99 1.63.23-.04.68-.19.68-.34-.01-.17-.61-.29-1.13-.36.4-.16.48-.25.47-.3-.03-.13-.78.04-1.48-.18a2.8 2.8 0 0 1-1.43-1.24c.04-.74.05-2.99-1.49-5.11a8.5 8.5 0 0 0-9.6-2.87 10 10 0 0 0-3.29 1.84 9.4 9.4 0 0 0-3.31 6.59q-.11 1.86.31 3.64c.61 2.47 1.88 4.1 2.65 5.07 1.16 1.47 2.27 2.34 3.34 3.18a28 28 0 0 0 5.83 3.48 13 13 0 0 0-2.2 5.46q-.09.22-.13.43-.91-.63-1.93-1.13a11.3 11.3 0 0 0-15.07 5.23 9.7 9.7 0 0 0-.07 7.74 9.4 9.4 0 0 0 4.31 4.45c.31.57.6 1.33.42 2.14-.18.83-.8 1.48-.68 1.59.04.04.17.01.58-.3-.23.56-.47 1.23-.3 1.34.15.1.56-.29.74-.48.95-1.08.38-3.1.1-3.94A7.3 7.3 0 0 0-47.45-9a7.4 7.4 0 0 0 4.23-3.77 6 6 0 0 0 .27-4.59 6 6 0 0 0-3.06-3.44c-2.48-1.21-6.24.53-6.57 2.28-.07.38-.01.9.27 1.31.3.44.95.93 1.49.71.44-.17.64-.73.65-1.15.01-.79-.65-1.07-.58-1.49.13-.75 2.5-1.56 4.3-.76 2.31 1.02 3.37 4.55 2.33 6.7a6.4 6.4 0 0 1-3.66 3.25 6.4 6.4 0 0 1-4.89-.28 8.13 8.13 0 0 1-3.77-10.85 10.24 10.24 0 0 1 13.73-4.77 13 13 0 0 1 6.6 7.42c1.09 3.14.95 6.5-.4 9.52q-.72-.15-1.47-.15A9.13 9.13 0 0 0-47.1.06c0 5.65 4.17 10.34 9.59 11.15a12 12 0 0 0-3.86 4.12 13.5 13.5 0 0 0-1.89 5.55l-.04.66c-.75 1.1-1.21 1.29-1.5 1.23-.25-.06-.43-.3-.65-.23-.19.07-.27.35-.31.57-.64-.5-1.24-.62-1.45-.4-.04.03-.14.16-.07.52-1.41-.35-1.75-.28-1.8-.16-.14.31 1.22 1.63 2.79 1.6 1.22-.02 2.37-.84 2.99-2.12l.03.6s.18 2.95 1.43 5.37a10.87 10.87 0 0 0 14.61 4.71 8.8 8.8 0 0 0 3.76-11.83 7.13 7.13 0 0 0-9.58-3.09c-2.64 1.36-3.58 5.15-2.48 7.81.73 1.77 2.64 3.58 4.53 3.38 1.18-.12 2.53-1.05 2.46-1.88-.04-.53-.65-1.15-1.28-1.11-.27.01-.65.16-.8.46-.22.45.23.88.03 1.22-.21.36-.95.28-1.08.27-1.28-.13-2.51-1.48-3.01-2.78-.83-2.16-.14-5.37 2.07-6.51a6.17 6.17 0 0 1 8.29 2.67 7.83 7.83 0 0 1-3.36 10.53 9.9 9.9 0 0 1-13.31-4.29 12.5 12.5 0 0 1 5.22-16.74 16 16 0 0 0 6.14-1.5c-.88 1.18-1.09 2.64-.53 3.78.72 1.47 2.58 2.09 2.8 1.82.09-.11-.01-.45-1-1.59.36-.1.43-.26.44-.31.1-.3-.29-.8-1.05-1.15.18-.14.4-.35.37-.56-.04-.24-.35-.29-.52-.5-.19-.24-.24-.75.43-1.97l.58-.35c.53-.35 2.57-1.72 4.22-4.39a13 13 0 0 0 1.96-5.45 11.4 11.4 0 0 0 4.9 4.82c.76.35 4.1 1.77 7.74.19A9.4 9.4 0 0 0-4.78-.05a3 3 0 0 1 2.16-.39c.82.19 1.46.83 1.57.71.04-.05.01-.18-.29-.59C-.79-.08-.11.17 0 0Z" style="fill:none;stroke:#000;stroke-opacity:1;stroke-width:.75;stroke-linecap:butt;stroke-linejoin:miter;stroke-miterlimit:10;stroke-dasharray:none" transform="translate(159.97 17.26)"/><path d="m0 0-.24-.07.02.02Q-.11 0 0 0" style="fill:#000;fill-opacity:1;fill-rule:nonzero;stroke:none" transform="translate(69.73 9.45)"/><path d="m0 0-.24-.07.02.02Q-.11 0 0 0Z" style="fill:none;stroke:#000;stroke-opacity:1;stroke-width:.75;stroke-linecap:butt;stroke-linejoin:miter;stroke-miterlimit:10;stroke-dasharray:none" transform="translate(69.73 9.45)"/><path d="M0 0c.1-.15-.28-.57-.48-.75-1.05-.96-3.09-.43-3.93-.16a7.4 7.4 0 0 0 .05-4.79 7.4 7.4 0 0 0-3.69-4.29 6 6 0 0 0-4.6-.34 6 6 0 0 0-3.48 3.01c-1.24 2.46.43 6.24 2.17 6.6.38.07.9.02 1.32-.25.45-.29.94-.94.74-1.48-.17-.45-.73-.65-1.15-.67-.79-.02-1.07.64-1.5.56-.74-.14-1.52-2.52-.69-4.31 1.06-2.3 4.6-3.3 6.74-2.23a6.4 6.4 0 0 1 3.19 3.71A6.4 6.4 0 0 1-5.67-.5a8.13 8.13 0 0 1-10.91 3.59 10.2 10.2 0 0 1-5.13-5.96c-.86-2.6-.65-5.39.58-7.84a13 13 0 0 1 7.52-6.48 13 13 0 0 1 9.9.74.5.5 0 0 0 .45-.9 14 14 0 0 0-10.66-.79 14 14 0 0 0-8.1 6.98 11 11 0 0 0-.73 8.29l-.11.23c0 7.16-5.81 12.98-12.97 12.98A10.3 10.3 0 0 1-46.1.06a8.13 8.13 0 0 1 8.12-8.12q.78 0 1.5.18l.24.07a6.4 6.4 0 0 1 4.66 6.14c0 2.59-2.64 4.76-5.02 5.02-1.44.16-3.27-.34-4-1.46-.07-.11-.49-.76-.26-1.13.22-.34.82-.13 1.13-.55.22-.29.17-.7.05-.96-.26-.6-1.12-.87-1.63-.66-.8.33-1.01 2.03-.57 3.18.72 1.85 3.29 2.75 5.28 2.58 2.97-.25 6.02-2.93 6.02-6.02 0-1.41-.4-2.73-1.11-3.86a5 5 0 0 0 3.24.08 5.7 5.7 0 0 0 3.41-2.82c.61-1.13.76-2.44.44-3.69a4.8 4.8 0 0 0-2.14-2.94q-.66-.4-1.37-.49c-.68-.09-1.2.04-1.48.11-.76.2-1.25.56-1.36.64-.42.3-.8.59-.96 1.12-.04.13-.24.78.12 1.23.25.29.72.48 1.04.27.4-.26.28-1 .27-1.05-.06-.37-.23-.42-.21-.59.07-.58 2.07-1.28 3.54-.48.6.33.98.85 1.11 1.02a4.2 4.2 0 0 1 .28 4.42 5 5 0 0 1-2.91 2.4 4.5 4.5 0 0 1-3.64-.48q-.19-.1-.36-.02a7 7 0 0 0-2.87-1.84c1.4-3.22 1.53-6.79.37-10.12a14 14 0 0 0-4.28-6.18q.15-.37.23-.93c2.27-7.72 9.33-11.91 15.05-10.49 4.9 1.21 9.25 6.66 8.31 11.93a8.13 8.13 0 0 1-9.43 6.56 6.4 6.4 0 0 1-5.17-7.42c.46-2.55 3.43-4.22 5.82-4.06 1.45.1 3.16.91 3.68 2.15.05.12.35.83.06 1.15s-.83-.01-1.21.35c-.26.24-.29.66-.22.93.15.64.95 1.06 1.49.94.85-.19 1.35-1.81 1.12-3.03-.38-1.94-2.75-3.28-4.74-3.47-2.96-.28-6.44 1.82-6.98 4.86a7.4 7.4 0 0 0 5.97 8.59 9.14 9.14 0 0 0 10.59-7.37 11.3 11.3 0 0 0-9.11-13.09c-2.78-.5-5.76.22-5.76.22l-.61.15c1.08-1 1.55-2.4 1.2-3.62-.46-1.57-2.17-2.51-2.44-2.28-.11.09-.07.45.7 1.74-.37.03-.47.18-.49.23-.15.28.15.83.84 1.32-.21.1-.46.27-.47.48 0 .24.3.35.42.58.15.27.11.79-.76 1.87l-.64.24c-.58.25-2.83 1.24-4.93 3.58q-.2.21-.45.51c-.55-.34-1.47-.75-1.75-.88 0 0-1.82-.84-3.99-2.38-.74-.51-2.1-1.49-3.41-3.14-.71-.89-1.9-2.41-2.46-4.72a12 12 0 0 1-.29-3.38 8.6 8.6 0 0 1 3.01-6 8.8 8.8 0 0 1 6.43-2.07 7.1 7.1 0 0 1 6.53 7.49 5.3 5.3 0 0 1-1.87 3.73 5.5 5.5 0 0 1-4.01 1.3c-2.05-.17-4.25-2.48-4.03-4.63.17-1.68 1.79-3.07 2.41-2.85.35.13.27.74.87 1.08.32.17.82.27 1.14.02.4-.31.31-1 .11-1.41-.2-.39-.56-.66-.87-.77-1.46-.52-4.36 1.51-4.52 3.86a5.2 5.2 0 0 0 1.27 3.75 5.3 5.3 0 0 0 3.57 1.8c1.7.13 3.34-.4 4.62-1.49a6.2 6.2 0 0 0 2.07-3.53c.5.57 1.78 1.86 2.99 1.63.23-.04.68-.19.68-.34-.01-.17-.61-.29-1.13-.36.4-.16.48-.25.47-.3-.03-.13-.78.04-1.48-.18a2.8 2.8 0 0 1-1.43-1.24c.04-.74.05-2.99-1.49-5.11a8.5 8.5 0 0 0-9.6-2.87 10 10 0 0 0-3.29 1.84 9.4 9.4 0 0 0-3.31 6.59q-.11 1.86.31 3.64c.61 2.47 1.88 4.1 2.65 5.07 1.16 1.47 2.27 2.34 3.34 3.18a28 28 0 0 0 5.83 3.48 13 13 0 0 0-2.2 5.46q-.09.22-.13.43-.91-.63-1.93-1.13a11.3 11.3 0 0 0-15.07 5.23 9.7 9.7 0 0 0-.07 7.74 9.4 9.4 0 0 0 4.31 4.45c.31.57.6 1.33.42 2.14-.18.83-.8 1.48-.68 1.59.04.04.17.01.58-.3-.23.56-.47 1.23-.3 1.34.15.1.56-.29.74-.48.95-1.08.38-3.1.1-3.94A7.3 7.3 0 0 0-47.45-9a7.4 7.4 0 0 0 4.23-3.77 6 6 0 0 0 .27-4.59 6 6 0 0 0-3.06-3.44c-2.48-1.21-6.24.53-6.57 2.28-.07.38-.01.9.27 1.31.3.44.95.93 1.49.71.44-.17.64-.73.65-1.15.01-.79-.65-1.07-.58-1.49.13-.75 2.5-1.56 4.3-.76 2.31 1.02 3.37 4.55 2.33 6.7a6.4 6.4 0 0 1-3.66 3.25 6.4 6.4 0 0 1-4.89-.28 8.13 8.13 0 0 1-3.77-10.85 10.24 10.24 0 0 1 13.73-4.77 13 13 0 0 1 6.6 7.42c1.09 3.14.95 6.5-.4 9.52q-.72-.15-1.47-.15A9.13 9.13 0 0 0-47.1.06c0 5.65 4.17 10.34 9.59 11.15a12 12 0 0 0-3.86 4.12 13.5 13.5 0 0 0-1.89 5.55l-.04.66c-.75 1.1-1.21 1.29-1.5 1.23-.25-.06-.43-.3-.65-.23-.19.07-.27.35-.31.57-.64-.5-1.24-.62-1.45-.4-.04.03-.14.16-.07.52-1.41-.35-1.75-.28-1.8-.16-.14.31 1.22 1.63 2.79 1.6 1.22-.02 2.37-.84 2.99-2.12l.03.6s.18 2.95 1.43 5.37a10.87 10.87 0 0 0 14.61 4.71 8.8 8.8 0 0 0 3.76-11.83 7.13 7.13 0 0 0-9.58-3.09c-2.64 1.36-3.58 5.15-2.48 7.81.73 1.77 2.64 3.58 4.53 3.38 1.18-.12 2.53-1.05 2.46-1.88-.04-.53-.65-1.15-1.28-1.11-.27.01-.65.16-.8.46-.22.45.23.88.03 1.22-.21.36-.95.28-1.08.27-1.28-.13-2.51-1.48-3.01-2.78-.83-2.16-.14-5.37 2.07-6.51a6.17 6.17 0 0 1 8.29 2.67 7.83 7.83 0 0 1-3.36 10.53 9.9 9.9 0 0 1-13.31-4.29 12.5 12.5 0 0 1 5.22-16.74 16 16 0 0 0 6.14-1.5c-.88 1.18-1.09 2.64-.53 3.78.72 1.47 2.58 2.09 2.8 1.82.09-.11-.01-.45-1-1.59.36-.1.43-.26.44-.31.1-.3-.29-.8-1.05-1.15.18-.14.4-.35.37-.56-.04-.24-.35-.29-.52-.5-.19-.24-.24-.75.43-1.97l.58-.35c.53-.35 2.57-1.72 4.22-4.39a13 13 0 0 0 1.96-5.45 11.4 11.4 0 0 0 4.9 4.82c.76.35 4.1 1.77 7.74.19A9.4 9.4 0 0 0-4.78-.05a3 3 0 0 1 2.16-.39c.82.19 1.46.83 1.57.71.04-.05.01-.18-.29-.59C-.79-.08-.11.17 0 0" style="fill:#000;fill-opacity:1;fill-rule:nonzero;stroke:none" transform="translate(105.97 17.26)"/><path d="M0 0c.1-.15-.28-.57-.48-.75-1.05-.96-3.09-.43-3.93-.16a7.4 7.4 0 0 0 .05-4.79 7.4 7.4 0 0 0-3.69-4.29 6 6 0 0 0-4.6-.34 6 6 0 0 0-3.48 3.01c-1.24 2.46.43 6.24 2.17 6.6.38.07.9.02 1.32-.25.45-.29.94-.94.74-1.48-.17-.45-.73-.65-1.15-.67-.79-.02-1.07.64-1.5.56-.74-.14-1.52-2.52-.69-4.31 1.06-2.3 4.6-3.3 6.74-2.23a6.4 6.4 0 0 1 3.19 3.71A6.4 6.4 0 0 1-5.67-.5a8.13 8.13 0 0 1-10.91 3.59 10.2 10.2 0 0 1-5.13-5.96c-.86-2.6-.65-5.39.58-7.84a13 13 0 0 1 7.52-6.48 13 13 0 0 1 9.9.74.5.5 0 0 0 .45-.9 14 14 0 0 0-10.66-.79 14 14 0 0 0-8.1 6.98 11 11 0 0 0-.73 8.29l-.11.23c0 7.16-5.81 12.98-12.97 12.98A10.3 10.3 0 0 1-46.1.06a8.13 8.13 0 0 1 8.12-8.12q.78 0 1.5.18l.24.07a6.4 6.4 0 0 1 4.66 6.14c0 2.59-2.64 4.76-5.02 5.02-1.44.16-3.27-.34-4-1.46-.07-.11-.49-.76-.26-1.13.22-.34.82-.13 1.13-.55.22-.29.17-.7.05-.96-.26-.6-1.12-.87-1.63-.66-.8.33-1.01 2.03-.57 3.18.72 1.85 3.29 2.75 5.28 2.58 2.97-.25 6.02-2.93 6.02-6.02 0-1.41-.4-2.73-1.11-3.86a5 5 0 0 0 3.24.08 5.7 5.7 0 0 0 3.41-2.82c.61-1.13.76-2.44.44-3.69a4.8 4.8 0 0 0-2.14-2.94q-.66-.4-1.37-.49c-.68-.09-1.2.04-1.48.11-.76.2-1.25.56-1.36.64-.42.3-.8.59-.96 1.12-.04.13-.24.78.12 1.23.25.29.72.48 1.04.27.4-.26.28-1 .27-1.05-.06-.37-.23-.42-.21-.59.07-.58 2.07-1.28 3.54-.48.6.33.98.85 1.11 1.02a4.2 4.2 0 0 1 .28 4.42 5 5 0 0 1-2.91 2.4 4.5 4.5 0 0 1-3.64-.48q-.19-.1-.36-.02a7 7 0 0 0-2.87-1.84c1.4-3.22 1.53-6.79.37-10.12a14 14 0 0 0-4.28-6.18q.15-.37.23-.93c2.27-7.72 9.33-11.91 15.05-10.49 4.9 1.21 9.25 6.66 8.31 11.93a8.13 8.13 0 0 1-9.43 6.56 6.4 6.4 0 0 1-5.17-7.42c.46-2.55 3.43-4.22 5.82-4.06 1.45.1 3.16.91 3.68 2.15.05.12.35.83.06 1.15s-.83-.01-1.21.35c-.26.24-.29.66-.22.93.15.64.95 1.06 1.49.94.85-.19 1.35-1.81 1.12-3.03-.38-1.94-2.75-3.28-4.74-3.47-2.96-.28-6.44 1.82-6.98 4.86a7.4 7.4 0 0 0 5.97 8.59 9.14 9.14 0 0 0 10.59-7.37 11.3 11.3 0 0 0-9.11-13.09c-2.78-.5-5.76.22-5.76.22l-.61.15c1.08-1 1.55-2.4 1.2-3.62-.46-1.57-2.17-2.51-2.44-2.28-.11.09-.07.45.7 1.74-.37.03-.47.18-.49.23-.15.28.15.83.84 1.32-.21.1-.46.27-.47.48 0 .24.3.35.42.58.15.27.11.79-.76 1.87l-.64.24c-.58.25-2.83 1.24-4.93 3.58q-.2.21-.45.51c-.55-.34-1.47-.75-1.75-.88 0 0-1.82-.84-3.99-2.38-.74-.51-2.1-1.49-3.41-3.14-.71-.89-1.9-2.41-2.46-4.72a12 12 0 0 1-.29-3.38 8.6 8.6 0 0 1 3.01-6 8.8 8.8 0 0 1 6.43-2.07 7.1 7.1 0 0 1 6.53 7.49 5.3 5.3 0 0 1-1.87 3.73 5.5 5.5 0 0 1-4.01 1.3c-2.05-.17-4.25-2.48-4.03-4.63.17-1.68 1.79-3.07 2.41-2.85.35.13.27.74.87 1.08.32.17.82.27 1.14.02.4-.31.31-1 .11-1.41-.2-.39-.56-.66-.87-.77-1.46-.52-4.36 1.51-4.52 3.86a5.2 5.2 0 0 0 1.27 3.75 5.3 5.3 0 0 0 3.57 1.8c1.7.13 3.34-.4 4.62-1.49a6.2 6.2 0 0 0 2.07-3.53c.5.57 1.78 1.86 2.99 1.63.23-.04.68-.19.68-.34-.01-.17-.61-.29-1.13-.36.4-.16.48-.25.47-.3-.03-.13-.78.04-1.48-.18a2.8 2.8 0 0 1-1.43-1.24c.04-.74.05-2.99-1.49-5.11a8.5 8.5 0 0 0-9.6-2.87 10 10 0 0 0-3.29 1.84 9.4 9.4 0 0 0-3.31 6.59q-.11 1.86.31 3.64c.61 2.47 1.88 4.1 2.65 5.07 1.16 1.47 2.27 2.34 3.34 3.18a28 28 0 0 0 5.83 3.48 13 13 0 0 0-2.2 5.46q-.09.22-.13.43-.91-.63-1.93-1.13a11.3 11.3 0 0 0-15.07 5.23 9.7 9.7 0 0 0-.07 7.74 9.4 9.4 0 0 0 4.31 4.45c.31.57.6 1.33.42 2.14-.18.83-.8 1.48-.68 1.59.04.04.17.01.58-.3-.23.56-.47 1.23-.3 1.34.15.1.56-.29.74-.48.95-1.08.38-3.1.1-3.94A7.3 7.3 0 0 0-47.45-9a7.4 7.4 0 0 0 4.23-3.77 6 6 0 0 0 .27-4.59 6 6 0 0 0-3.06-3.44c-2.48-1.21-6.24.53-6.57 2.28-.07.38-.01.9.27 1.31.3.44.95.93 1.49.71.44-.17.64-.73.65-1.15.01-.79-.65-1.07-.58-1.49.13-.75 2.5-1.56 4.3-.76 2.31 1.02 3.37 4.55 2.33 6.7a6.4 6.4 0 0 1-3.66 3.25 6.4 6.4 0 0 1-4.89-.28 8.13 8.13 0 0 1-3.77-10.85 10.24 10.24 0 0 1 13.73-4.77 13 13 0 0 1 6.6 7.42c1.09 3.14.95 6.5-.4 9.52q-.72-.15-1.47-.15A9.13 9.13 0 0 0-47.1.06c0 5.65 4.17 10.34 9.59 11.15a12 12 0 0 0-3.86 4.12 13.5 13.5 0 0 0-1.89 5.55l-.04.66c-.75 1.1-1.21 1.29-1.5 1.23-.25-.06-.43-.3-.65-.23-.19.07-.27.35-.31.57-.64-.5-1.24-.62-1.45-.4-.04.03-.14.16-.07.52-1.41-.35-1.75-.28-1.8-.16-.14.31 1.22 1.63 2.79 1.6 1.22-.02 2.37-.84 2.99-2.12l.03.6s.18 2.95 1.43 5.37a10.87 10.87 0 0 0 14.61 4.71 8.8 8.8 0 0 0 3.76-11.83 7.13 7.13 0 0 0-9.58-3.09c-2.64 1.36-3.58 5.15-2.48 7.81.73 1.77 2.64 3.58 4.53 3.38 1.18-.12 2.53-1.05 2.46-1.88-.04-.53-.65-1.15-1.28-1.11-.27.01-.65.16-.8.46-.22.45.23.88.03 1.22-.21.36-.95.28-1.08.27-1.28-.13-2.51-1.48-3.01-2.78-.83-2.16-.14-5.37 2.07-6.51a6.17 6.17 0 0 1 8.29 2.67 7.83 7.83 0 0 1-3.36 10.53 9.9 9.9 0 0 1-13.31-4.29 12.5 12.5 0 0 1 5.22-16.74 16 16 0 0 0 6.14-1.5c-.88 1.18-1.09 2.64-.53 3.78.72 1.47 2.58 2.09 2.8 1.82.09-.11-.01-.45-1-1.59.36-.1.43-.26.44-.31.1-.3-.29-.8-1.05-1.15.18-.14.4-.35.37-.56-.04-.24-.35-.29-.52-.5-.19-.24-.24-.75.43-1.97l.58-.35c.53-.35 2.57-1.72 4.22-4.39a13 13 0 0 0 1.96-5.45 11.4 11.4 0 0 0 4.9 4.82c.76.35 4.1 1.77 7.74.19A9.4 9.4 0 0 0-4.78-.05a3 3 0 0 1 2.16-.39c.82.19 1.46.83 1.57.71.04-.05.01-.18-.29-.59C-.79-.08-.11.17 0 0Z" style="fill:none;stroke:#000;stroke-opacity:1;stroke-width:.75;stroke-linecap:butt;stroke-linejoin:miter;stroke-miterlimit:10;stroke-dasharray:none" transform="translate(105.97 17.26)"/><path d="m0 0-.24-.07.02.02Q-.11 0 0 0" style="fill:#000;fill-opacity:1;fill-rule:nonzero;stroke:none" transform="translate(15.73 9.45)"/><path d="m0 0-.24-.07.02.02Q-.11 0 0 0Z" style="fill:none;stroke:#000;stroke-opacity:1;stroke-width:.75;stroke-linecap:butt;stroke-linejoin:miter;stroke-miterlimit:10;stroke-dasharray:none" transform="translate(15.73 9.45)"/><path d="M0 0c.1-.15-.28-.57-.48-.75-1.05-.96-3.09-.43-3.93-.16a7.4 7.4 0 0 0 .05-4.79 7.4 7.4 0 0 0-3.69-4.29 6 6 0 0 0-4.6-.34 6 6 0 0 0-3.48 3.01c-1.24 2.46.43 6.24 2.17 6.6.38.07.9.02 1.32-.25.45-.29.94-.94.74-1.48-.17-.45-.73-.65-1.15-.67-.79-.02-1.07.64-1.5.56-.74-.14-1.52-2.52-.69-4.31 1.06-2.3 4.6-3.3 6.74-2.23a6.4 6.4 0 0 1 3.19 3.71A6.4 6.4 0 0 1-5.67-.5a8.13 8.13 0 0 1-10.91 3.59 10.2 10.2 0 0 1-5.13-5.96c-.86-2.6-.65-5.39.58-7.84a13 13 0 0 1 7.52-6.48 13 13 0 0 1 9.9.74.5.5 0 0 0 .45-.9 14 14 0 0 0-10.66-.79 14 14 0 0 0-8.1 6.98 11 11 0 0 0-.73 8.29l-.11.23c0 7.16-5.81 12.98-12.97 12.98A10.3 10.3 0 0 1-46.1.06a8.13 8.13 0 0 1 8.12-8.12q.78 0 1.5.18l.24.07a6.4 6.4 0 0 1 4.66 6.14c0 2.59-2.64 4.76-5.02 5.02-1.44.16-3.27-.34-4-1.46-.07-.11-.49-.76-.26-1.13.22-.34.82-.13 1.13-.55.22-.29.17-.7.05-.96-.26-.6-1.12-.87-1.63-.66-.8.33-1.01 2.03-.57 3.18.72 1.85 3.29 2.75 5.28 2.58 2.97-.25 6.02-2.93 6.02-6.02 0-1.41-.4-2.73-1.11-3.86a5 5 0 0 0 3.24.08 5.7 5.7 0 0 0 3.41-2.82c.61-1.13.76-2.44.44-3.69a4.8 4.8 0 0 0-2.14-2.94q-.66-.4-1.37-.49c-.68-.09-1.2.04-1.48.11-.76.2-1.25.56-1.36.64-.42.3-.8.59-.96 1.12-.04.13-.24.78.12 1.23.25.29.72.48 1.04.27.4-.26.28-1 .27-1.05-.06-.37-.23-.42-.21-.59.07-.58 2.07-1.28 3.54-.48.6.33.98.85 1.11 1.02a4.2 4.2 0 0 1 .28 4.42 5 5 0 0 1-2.91 2.4 4.5 4.5 0 0 1-3.64-.48q-.19-.1-.36-.02a7 7 0 0 0-2.87-1.84c1.4-3.22 1.53-6.79.37-10.12a14 14 0 0 0-4.28-6.18q.15-.37.23-.93c2.27-7.72 9.33-11.91 15.05-10.49 4.9 1.21 9.25 6.66 8.31 11.93a8.13 8.13 0 0 1-9.43 6.56 6.4 6.4 0 0 1-5.17-7.42c.46-2.55 3.43-4.22 5.82-4.06 1.45.1 3.16.91 3.68 2.15.05.12.35.83.06 1.15s-.83-.01-1.21.35c-.26.24-.29.66-.22.93.15.64.95 1.06 1.49.94.85-.19 1.35-1.81 1.12-3.03-.38-1.94-2.75-3.28-4.74-3.47-2.96-.28-6.44 1.82-6.98 4.86a7.4 7.4 0 0 0 5.97 8.59 9.14 9.14 0 0 0 10.59-7.37 11.3 11.3 0 0 0-9.11-13.09c-2.78-.5-5.76.22-5.76.22l-.61.15c1.08-1 1.55-2.4 1.2-3.62-.46-1.57-2.17-2.51-2.44-2.28-.11.09-.07.45.7 1.74-.37.03-.47.18-.49.23-.15.28.15.83.84 1.32-.21.1-.46.27-.47.48 0 .24.3.35.42.58.15.27.11.79-.76 1.87l-.64.24c-.58.25-2.83 1.24-4.93 3.58q-.2.21-.45.51c-.55-.34-1.47-.75-1.75-.88 0 0-1.82-.84-3.99-2.38-.74-.51-2.1-1.49-3.41-3.14-.71-.89-1.9-2.41-2.46-4.72a12 12 0 0 1-.29-3.38 8.6 8.6 0 0 1 3.01-6 8.8 8.8 0 0 1 6.43-2.07 7.1 7.1 0 0 1 6.53 7.49 5.3 5.3 0 0 1-1.87 3.73 5.5 5.5 0 0 1-4.01 1.3c-2.05-.17-4.25-2.48-4.03-4.63.17-1.68 1.79-3.07 2.41-2.85.35.13.27.74.87 1.08.32.17.82.27 1.14.02.4-.31.31-1 .11-1.41-.2-.39-.56-.66-.87-.77-1.46-.52-4.36 1.51-4.52 3.86a5.2 5.2 0 0 0 1.27 3.75 5.3 5.3 0 0 0 3.57 1.8c1.7.13 3.34-.4 4.62-1.49a6.2 6.2 0 0 0 2.07-3.53c.5.57 1.78 1.86 2.99 1.63.23-.04.68-.19.68-.34-.01-.17-.61-.29-1.13-.36.4-.16.48-.25.47-.3-.03-.13-.78.04-1.48-.18a2.8 2.8 0 0 1-1.43-1.24c.04-.74.05-2.99-1.49-5.11a8.5 8.5 0 0 0-9.6-2.87 10 10 0 0 0-3.29 1.84 9.4 9.4 0 0 0-3.31 6.59q-.11 1.86.31 3.64c.61 2.47 1.88 4.1 2.65 5.07 1.16 1.47 2.27 2.34 3.34 3.18a28 28 0 0 0 5.83 3.48 13 13 0 0 0-2.2 5.46q-.09.22-.13.43-.91-.63-1.93-1.13a11.3 11.3 0 0 0-15.07 5.23 9.7 9.7 0 0 0-.07 7.74 9.4 9.4 0 0 0 4.31 4.45c.31.57.6 1.33.42 2.14-.18.83-.8 1.48-.68 1.59.04.04.17.01.58-.3-.23.56-.47 1.23-.3 1.34.15.1.56-.29.74-.48.95-1.08.38-3.1.1-3.94A7.3 7.3 0 0 0-47.45-9a7.4 7.4 0 0 0 4.23-3.77 6 6 0 0 0 .27-4.59 6 6 0 0 0-3.06-3.44c-2.48-1.21-6.24.53-6.57 2.28-.07.38-.01.9.27 1.31.3.44.95.93 1.49.71.44-.17.64-.73.65-1.15.01-.79-.65-1.07-.58-1.49.13-.75 2.5-1.56 4.3-.76 2.31 1.02 3.37 4.55 2.33 6.7a6.4 6.4 0 0 1-3.66 3.25 6.4 6.4 0 0 1-4.89-.28 8.13 8.13 0 0 1-3.77-10.85 10.24 10.24 0 0 1 13.73-4.77 13 13 0 0 1 6.6 7.42c1.09 3.14.95 6.5-.4 9.52q-.72-.15-1.47-.15A9.13 9.13 0 0 0-47.1.06c0 5.65 4.17 10.34 9.59 11.15a12 12 0 0 0-3.86 4.12 13.5 13.5 0 0 0-1.89 5.55l-.04.66c-.75 1.1-1.21 1.29-1.5 1.23-.25-.06-.43-.3-.65-.23-.19.07-.27.35-.31.57-.64-.5-1.24-.62-1.45-.4-.04.03-.14.16-.07.52-1.41-.35-1.75-.28-1.8-.16-.14.31 1.22 1.63 2.79 1.6 1.22-.02 2.37-.84 2.99-2.12l.03.6s.18 2.95 1.43 5.37a10.87 10.87 0 0 0 14.61 4.71 8.8 8.8 0 0 0 3.76-11.83 7.13 7.13 0 0 0-9.58-3.09c-2.64 1.36-3.58 5.15-2.48 7.81.73 1.77 2.64 3.58 4.53 3.38 1.18-.12 2.53-1.05 2.46-1.88-.04-.53-.65-1.15-1.28-1.11-.27.01-.65.16-.8.46-.22.45.23.88.03 1.22-.21.36-.95.28-1.08.27-1.28-.13-2.51-1.48-3.01-2.78-.83-2.16-.14-5.37 2.07-6.51a6.17 6.17 0 0 1 8.29 2.67 7.83 7.83 0 0 1-3.36 10.53 9.9 9.9 0 0 1-13.31-4.29 12.5 12.5 0 0 1 5.22-16.74 16 16 0 0 0 6.14-1.5c-.88 1.18-1.09 2.64-.53 3.78.72 1.47 2.58 2.09 2.8 1.82.09-.11-.01-.45-1-1.59.36-.1.43-.26.44-.31.1-.3-.29-.8-1.05-1.15.18-.14.4-.35.37-.56-.04-.24-.35-.29-.52-.5-.19-.24-.24-.75.43-1.97l.58-.35c.53-.35 2.57-1.72 4.22-4.39a13 13 0 0 0 1.96-5.45 11.4 11.4 0 0 0 4.9 4.82c.76.35 4.1 1.77 7.74.19A9.4 9.4 0 0 0-4.78-.05a3 3 0 0 1 2.16-.39c.82.19 1.46.83 1.57.71.04-.05.01-.18-.29-.59C-.79-.08-.11.17 0 0" style="fill:#000;fill-opacity:1;fill-rule:nonzero;stroke:none" transform="translate(51.97 17.26)"/><path d="M0 0c.1-.15-.28-.57-.48-.75-1.05-.96-3.09-.43-3.93-.16a7.4 7.4 0 0 0 .05-4.79 7.4 7.4 0 0 0-3.69-4.29 6 6 0 0 0-4.6-.34 6 6 0 0 0-3.48 3.01c-1.24 2.46.43 6.24 2.17 6.6.38.07.9.02 1.32-.25.45-.29.94-.94.74-1.48-.17-.45-.73-.65-1.15-.67-.79-.02-1.07.64-1.5.56-.74-.14-1.52-2.52-.69-4.31 1.06-2.3 4.6-3.3 6.74-2.23a6.4 6.4 0 0 1 3.19 3.71A6.4 6.4 0 0 1-5.67-.5a8.13 8.13 0 0 1-10.91 3.59 10.2 10.2 0 0 1-5.13-5.96c-.86-2.6-.65-5.39.58-7.84a13 13 0 0 1 7.52-6.48 13 13 0 0 1 9.9.74.5.5 0 0 0 .45-.9 14 14 0 0 0-10.66-.79 14 14 0 0 0-8.1 6.98 11 11 0 0 0-.73 8.29l-.11.23c0 7.16-5.81 12.98-12.97 12.98A10.3 10.3 0 0 1-46.1.06a8.13 8.13 0 0 1 8.12-8.12q.78 0 1.5.18l.24.07a6.4 6.4 0 0 1 4.66 6.14c0 2.59-2.64 4.76-5.02 5.02-1.44.16-3.27-.34-4-1.46-.07-.11-.49-.76-.26-1.13.22-.34.82-.13 1.13-.55.22-.29.17-.7.05-.96-.26-.6-1.12-.87-1.63-.66-.8.33-1.01 2.03-.57 3.18.72 1.85 3.29 2.75 5.28 2.58 2.97-.25 6.02-2.93 6.02-6.02 0-1.41-.4-2.73-1.11-3.86a5 5 0 0 0 3.24.08 5.7 5.7 0 0 0 3.41-2.82c.61-1.13.76-2.44.44-3.69a4.8 4.8 0 0 0-2.14-2.94q-.66-.4-1.37-.49c-.68-.09-1.2.04-1.48.11-.76.2-1.25.56-1.36.64-.42.3-.8.59-.96 1.12-.04.13-.24.78.12 1.23.25.29.72.48 1.04.27.4-.26.28-1 .27-1.05-.06-.37-.23-.42-.21-.59.07-.58 2.07-1.28 3.54-.48.6.33.98.85 1.11 1.02a4.2 4.2 0 0 1 .28 4.42 5 5 0 0 1-2.91 2.4 4.5 4.5 0 0 1-3.64-.48q-.19-.1-.36-.02a7 7 0 0 0-2.87-1.84c1.4-3.22 1.53-6.79.37-10.12a14 14 0 0 0-4.28-6.18q.15-.37.23-.93c2.27-7.72 9.33-11.91 15.05-10.49 4.9 1.21 9.25 6.66 8.31 11.93a8.13 8.13 0 0 1-9.43 6.56 6.4 6.4 0 0 1-5.17-7.42c.46-2.55 3.43-4.22 5.82-4.06 1.45.1 3.16.91 3.68 2.15.05.12.35.83.06 1.15s-.83-.01-1.21.35c-.26.24-.29.66-.22.93.15.64.95 1.06 1.49.94.85-.19 1.35-1.81 1.12-3.03-.38-1.94-2.75-3.28-4.74-3.47-2.96-.28-6.44 1.82-6.98 4.86a7.4 7.4 0 0 0 5.97 8.59 9.14 9.14 0 0 0 10.59-7.37 11.3 11.3 0 0 0-9.11-13.09c-2.78-.5-5.76.22-5.76.22l-.61.15c1.08-1 1.55-2.4 1.2-3.62-.46-1.57-2.17-2.51-2.44-2.28-.11.09-.07.45.7 1.74-.37.03-.47.18-.49.23-.15.28.15.83.84 1.32-.21.1-.46.27-.47.48 0 .24.3.35.42.58.15.27.11.79-.76 1.87l-.64.24c-.58.25-2.83 1.24-4.93 3.58q-.2.21-.45.51c-.55-.34-1.47-.75-1.75-.88 0 0-1.82-.84-3.99-2.38-.74-.51-2.1-1.49-3.41-3.14-.71-.89-1.9-2.41-2.46-4.72a12 12 0 0 1-.29-3.38 8.6 8.6 0 0 1 3.01-6 8.8 8.8 0 0 1 6.43-2.07 7.1 7.1 0 0 1 6.53 7.49 5.3 5.3 0 0 1-1.87 3.73 5.5 5.5 0 0 1-4.01 1.3c-2.05-.17-4.25-2.48-4.03-4.63.17-1.68 1.79-3.07 2.41-2.85.35.13.27.74.87 1.08.32.17.82.27 1.14.02.4-.31.31-1 .11-1.41-.2-.39-.56-.66-.87-.77-1.46-.52-4.36 1.51-4.52 3.86a5.2 5.2 0 0 0 1.27 3.75 5.3 5.3 0 0 0 3.57 1.8c1.7.13 3.34-.4 4.62-1.49a6.2 6.2 0 0 0 2.07-3.53c.5.57 1.78 1.86 2.99 1.63.23-.04.68-.19.68-.34-.01-.17-.61-.29-1.13-.36.4-.16.48-.25.47-.3-.03-.13-.78.04-1.48-.18a2.8 2.8 0 0 1-1.43-1.24c.04-.74.05-2.99-1.49-5.11a8.5 8.5 0 0 0-9.6-2.87 10 10 0 0 0-3.29 1.84 9.4 9.4 0 0 0-3.31 6.59q-.11 1.86.31 3.64c.61 2.47 1.88 4.1 2.65 5.07 1.16 1.47 2.27 2.34 3.34 3.18a28 28 0 0 0 5.83 3.48 13 13 0 0 0-2.2 5.46q-.09.22-.13.43-.91-.63-1.93-1.13a11.3 11.3 0 0 0-15.07 5.23 9.7 9.7 0 0 0-.07 7.74 9.4 9.4 0 0 0 4.31 4.45c.31.57.6 1.33.42 2.14-.18.83-.8 1.48-.68 1.59.04.04.17.01.58-.3-.23.56-.47 1.23-.3 1.34.15.1.56-.29.74-.48.95-1.08.38-3.1.1-3.94A7.3 7.3 0 0 0-47.45-9a7.4 7.4 0 0 0 4.23-3.77 6 6 0 0 0 .27-4.59 6 6 0 0 0-3.06-3.44c-2.48-1.21-6.24.53-6.57 2.28-.07.38-.01.9.27 1.31.3.44.95.93 1.49.71.44-.17.64-.73.65-1.15.01-.79-.65-1.07-.58-1.49.13-.75 2.5-1.56 4.3-.76 2.31 1.02 3.37 4.55 2.33 6.7a6.4 6.4 0 0 1-3.66 3.25 6.4 6.4 0 0 1-4.89-.28 8.13 8.13 0 0 1-3.77-10.85 10.24 10.24 0 0 1 13.73-4.77 13 13 0 0 1 6.6 7.42c1.09 3.14.95 6.5-.4 9.52q-.72-.15-1.47-.15A9.13 9.13 0 0 0-47.1.06c0 5.65 4.17 10.34 9.59 11.15a12 12 0 0 0-3.86 4.12 13.5 13.5 0 0 0-1.89 5.55l-.04.66c-.75 1.1-1.21 1.29-1.5 1.23-.25-.06-.43-.3-.65-.23-.19.07-.27.35-.31.57-.64-.5-1.24-.62-1.45-.4-.04.03-.14.16-.07.52-1.41-.35-1.75-.28-1.8-.16-.14.31 1.22 1.63 2.79 1.6 1.22-.02 2.37-.84 2.99-2.12l.03.6s.18 2.95 1.43 5.37a10.87 10.87 0 0 0 14.61 4.71 8.8 8.8 0 0 0 3.76-11.83 7.13 7.13 0 0 0-9.58-3.09c-2.64 1.36-3.58 5.15-2.48 7.81.73 1.77 2.64 3.58 4.53 3.38 1.18-.12 2.53-1.05 2.46-1.88-.04-.53-.65-1.15-1.28-1.11-.27.01-.65.16-.8.46-.22.45.23.88.03 1.22-.21.36-.95.28-1.08.27-1.28-.13-2.51-1.48-3.01-2.78-.83-2.16-.14-5.37 2.07-6.51a6.17 6.17 0 0 1 8.29 2.67 7.83 7.83 0 0 1-3.36 10.53 9.9 9.9 0 0 1-13.31-4.29 12.5 12.5 0 0 1 5.22-16.74 16 16 0 0 0 6.14-1.5c-.88 1.18-1.09 2.64-.53 3.78.72 1.47 2.58 2.09 2.8 1.82.09-.11-.01-.45-1-1.59.36-.1.43-.26.44-.31.1-.3-.29-.8-1.05-1.15.18-.14.4-.35.37-.56-.04-.24-.35-.29-.52-.5-.19-.24-.24-.75.43-1.97l.58-.35c.53-.35 2.57-1.72 4.22-4.39a13 13 0 0 0 1.96-5.45 11.4 11.4 0 0 0 4.9 4.82c.76.35 4.1 1.77 7.74.19A9.4 9.4 0 0 0-4.78-.05a3 3 0 0 1 2.16-.39c.82.19 1.46.83 1.57.71.04-.05.01-.18-.29-.59C-.79-.08-.11.17 0 0Z" style="fill:none;stroke:#000;stroke-opacity:1;stroke-width:.75;stroke-linecap:butt;stroke-linejoin:miter;stroke-miterlimit:10;stroke-dasharray:none" transform="translate(51.97 17.26)"/><path d="m0 0-.24-.07.02.02Q-.11 0 0 0" style="fill:#000;fill-opacity:1;fill-rule:nonzero;stroke:none" transform="translate(96.73 72.45)"/><path d="m0 0-.24-.07.02.02Q-.11 0 0 0Z" style="fill:none;stroke:#000;stroke-opacity:1;stroke-width:.75;stroke-linecap:butt;stroke-linejoin:miter;stroke-miterlimit:10;stroke-dasharray:none" transform="translate(96.73 72.45)"/><path d="M0 0c.1-.15-.28-.57-.48-.75-1.05-.96-3.09-.43-3.93-.16a7.4 7.4 0 0 0 .05-4.79 7.4 7.4 0 0 0-3.69-4.29 6 6 0 0 0-4.6-.34 6 6 0 0 0-3.48 3.01c-1.24 2.46.43 6.24 2.17 6.6.38.07.9.02 1.32-.25.45-.29.94-.94.74-1.48-.17-.45-.73-.65-1.15-.67-.79-.02-1.07.64-1.5.56-.74-.14-1.52-2.52-.69-4.31 1.06-2.3 4.6-3.3 6.74-2.23a6.4 6.4 0 0 1 3.19 3.71A6.4 6.4 0 0 1-5.67-.5a8.13 8.13 0 0 1-10.91 3.59 10.2 10.2 0 0 1-5.13-5.96c-.86-2.6-.65-5.39.58-7.84a13 13 0 0 1 7.52-6.48 13 13 0 0 1 9.9.74.5.5 0 0 0 .45-.9 14 14 0 0 0-10.66-.79 14 14 0 0 0-8.1 6.98 11 11 0 0 0-.73 8.29l-.11.23c0 7.16-5.81 12.98-12.97 12.98A10.3 10.3 0 0 1-46.1.06a8.13 8.13 0 0 1 8.12-8.12q.78 0 1.5.18l.24.07a6.4 6.4 0 0 1 4.66 6.14c0 2.59-2.64 4.76-5.02 5.02-1.44.16-3.27-.34-4-1.46-.07-.11-.49-.76-.26-1.13.22-.34.82-.13 1.13-.55.22-.29.17-.7.05-.96-.26-.6-1.12-.87-1.63-.66-.8.33-1.01 2.03-.57 3.18.72 1.85 3.29 2.75 5.28 2.58 2.97-.25 6.02-2.93 6.02-6.02 0-1.41-.4-2.73-1.11-3.86a5 5 0 0 0 3.24.08 5.7 5.7 0 0 0 3.41-2.82c.61-1.13.76-2.44.44-3.69a4.8 4.8 0 0 0-2.14-2.94q-.66-.4-1.37-.49c-.68-.09-1.2.04-1.48.11-.76.2-1.25.56-1.36.64-.42.3-.8.59-.96 1.12-.04.13-.24.78.12 1.23.25.29.72.48 1.04.27.4-.26.28-1 .27-1.05-.06-.37-.23-.42-.21-.59.07-.58 2.07-1.28 3.54-.48.6.33.98.85 1.11 1.02a4.2 4.2 0 0 1 .28 4.42 5 5 0 0 1-2.91 2.4 4.5 4.5 0 0 1-3.64-.48q-.19-.1-.36-.02a7 7 0 0 0-2.87-1.84c1.4-3.22 1.53-6.79.37-10.12a14 14 0 0 0-4.28-6.18q.15-.37.23-.93c2.27-7.72 9.33-11.91 15.05-10.49 4.9 1.21 9.25 6.66 8.31 11.93a8.13 8.13 0 0 1-9.43 6.56 6.4 6.4 0 0 1-5.17-7.42c.46-2.55 3.43-4.22 5.82-4.06 1.45.1 3.16.91 3.68 2.15.05.12.35.83.06 1.15s-.83-.01-1.21.35c-.26.24-.29.66-.22.93.15.64.95 1.06 1.49.94.85-.19 1.35-1.81 1.12-3.03-.38-1.94-2.75-3.28-4.74-3.47-2.96-.28-6.44 1.82-6.98 4.86a7.4 7.4 0 0 0 5.97 8.59 9.14 9.14 0 0 0 10.59-7.37 11.3 11.3 0 0 0-9.11-13.09c-2.78-.5-5.76.22-5.76.22l-.61.15c1.08-1 1.55-2.4 1.2-3.62-.46-1.57-2.17-2.51-2.44-2.28-.11.09-.07.45.7 1.74-.37.03-.47.18-.49.23-.15.28.15.83.84 1.32-.21.1-.46.27-.47.48 0 .24.3.35.42.58.15.27.11.79-.76 1.87l-.64.24c-.58.25-2.83 1.24-4.93 3.58q-.2.21-.45.51c-.55-.34-1.47-.75-1.75-.88 0 0-1.82-.84-3.99-2.38-.74-.51-2.1-1.49-3.41-3.14-.71-.89-1.9-2.41-2.46-4.72a12 12 0 0 1-.29-3.38 8.6 8.6 0 0 1 3.01-6 8.8 8.8 0 0 1 6.43-2.07 7.1 7.1 0 0 1 6.53 7.49 5.3 5.3 0 0 1-1.87 3.73 5.5 5.5 0 0 1-4.01 1.3c-2.05-.17-4.25-2.48-4.03-4.63.17-1.68 1.79-3.07 2.41-2.85.35.13.27.74.87 1.08.32.17.82.27 1.14.02.4-.31.31-1 .11-1.41-.2-.39-.56-.66-.87-.77-1.46-.52-4.36 1.51-4.52 3.86a5.2 5.2 0 0 0 1.27 3.75 5.3 5.3 0 0 0 3.57 1.8c1.7.13 3.34-.4 4.62-1.49a6.2 6.2 0 0 0 2.07-3.53c.5.57 1.78 1.86 2.99 1.63.23-.04.68-.19.68-.34-.01-.17-.61-.29-1.13-.36.4-.16.48-.25.47-.3-.03-.13-.78.04-1.48-.18a2.8 2.8 0 0 1-1.43-1.24c.04-.74.05-2.99-1.49-5.11a8.5 8.5 0 0 0-9.6-2.87 10 10 0 0 0-3.29 1.84 9.4 9.4 0 0 0-3.31 6.59q-.11 1.86.31 3.64c.61 2.47 1.88 4.1 2.65 5.07 1.16 1.47 2.27 2.34 3.34 3.18a28 28 0 0 0 5.83 3.48 13 13 0 0 0-2.2 5.46q-.09.22-.13.43-.91-.63-1.93-1.13a11.3 11.3 0 0 0-15.07 5.23 9.7 9.7 0 0 0-.07 7.74 9.4 9.4 0 0 0 4.31 4.45c.31.57.6 1.33.42 2.14-.18.83-.8 1.48-.68 1.59.04.04.17.01.58-.3-.23.56-.47 1.23-.3 1.34.15.1.56-.29.74-.48.95-1.08.38-3.1.1-3.94A7.3 7.3 0 0 0-47.45-9a7.4 7.4 0 0 0 4.23-3.77 6 6 0 0 0 .27-4.59 6 6 0 0 0-3.06-3.44c-2.48-1.21-6.24.53-6.57 2.28-.07.38-.01.9.27 1.31.3.44.95.93 1.49.71.44-.17.64-.73.65-1.15.01-.79-.65-1.07-.58-1.49.13-.75 2.5-1.56 4.3-.76 2.31 1.02 3.37 4.55 2.33 6.7a6.4 6.4 0 0 1-3.66 3.25 6.4 6.4 0 0 1-4.89-.28 8.13 8.13 0 0 1-3.77-10.85 10.24 10.24 0 0 1 13.73-4.77 13 13 0 0 1 6.6 7.42c1.09 3.14.95 6.5-.4 9.52q-.72-.15-1.47-.15A9.13 9.13 0 0 0-47.1.06c0 5.65 4.17 10.34 9.59 11.15a12 12 0 0 0-3.86 4.12 13.5 13.5 0 0 0-1.89 5.55l-.04.66c-.75 1.1-1.21 1.29-1.5 1.23-.25-.06-.43-.3-.65-.23-.19.07-.27.35-.31.57-.64-.5-1.24-.62-1.45-.4-.04.03-.14.16-.07.52-1.41-.35-1.75-.28-1.8-.16-.14.31 1.22 1.63 2.79 1.6 1.22-.02 2.37-.84 2.99-2.12l.03.6s.18 2.95 1.43 5.37a10.87 10.87 0 0 0 14.61 4.71 8.8 8.8 0 0 0 3.76-11.83 7.13 7.13 0 0 0-9.58-3.09c-2.64 1.36-3.58 5.15-2.48 7.81.73 1.77 2.64 3.58 4.53 3.38 1.18-.12 2.53-1.05 2.46-1.88-.04-.53-.65-1.15-1.28-1.11-.27.01-.65.16-.8.46-.22.45.23.88.03 1.22-.21.36-.95.28-1.08.27-1.28-.13-2.51-1.48-3.01-2.78-.83-2.16-.14-5.37 2.07-6.51a6.17 6.17 0 0 1 8.29 2.67 7.83 7.83 0 0 1-3.36 10.53 9.9 9.9 0 0 1-13.31-4.29 12.5 12.5 0 0 1 5.22-16.74 16 16 0 0 0 6.14-1.5c-.88 1.18-1.09 2.64-.53 3.78.72 1.47 2.58 2.09 2.8 1.82.09-.11-.01-.45-1-1.59.36-.1.43-.26.44-.31.1-.3-.29-.8-1.05-1.15.18-.14.4-.35.37-.56-.04-.24-.35-.29-.52-.5-.19-.24-.24-.75.43-1.97l.58-.35c.53-.35 2.57-1.72 4.22-4.39a13 13 0 0 0 1.96-5.45 11.4 11.4 0 0 0 4.9 4.82c.76.35 4.1 1.77 7.74.19A9.4 9.4 0 0 0-4.78-.05a3 3 0 0 1 2.16-.39c.82.19 1.46.83 1.57.71.04-.05.01-.18-.29-.59C-.79-.08-.11.17 0 0" style="fill:#000;fill-opacity:1;fill-rule:nonzero;stroke:none" transform="translate(132.97 80.26)"/><path d="M0 0c.1-.15-.28-.57-.48-.75-1.05-.96-3.09-.43-3.93-.16a7.4 7.4 0 0 0 .05-4.79 7.4 7.4 0 0 0-3.69-4.29 6 6 0 0 0-4.6-.34 6 6 0 0 0-3.48 3.01c-1.24 2.46.43 6.24 2.17 6.6.38.07.9.02 1.32-.25.45-.29.94-.94.74-1.48-.17-.45-.73-.65-1.15-.67-.79-.02-1.07.64-1.5.56-.74-.14-1.52-2.52-.69-4.31 1.06-2.3 4.6-3.3 6.74-2.23a6.4 6.4 0 0 1 3.19 3.71A6.4 6.4 0 0 1-5.67-.5a8.13 8.13 0 0 1-10.91 3.59 10.2 10.2 0 0 1-5.13-5.96c-.86-2.6-.65-5.39.58-7.84a13 13 0 0 1 7.52-6.48 13 13 0 0 1 9.9.74.5.5 0 0 0 .45-.9 14 14 0 0 0-10.66-.79 14 14 0 0 0-8.1 6.98 11 11 0 0 0-.73 8.29l-.11.23c0 7.16-5.81 12.98-12.97 12.98A10.3 10.3 0 0 1-46.1.06a8.13 8.13 0 0 1 8.12-8.12q.78 0 1.5.18l.24.07a6.4 6.4 0 0 1 4.66 6.14c0 2.59-2.64 4.76-5.02 5.02-1.44.16-3.27-.34-4-1.46-.07-.11-.49-.76-.26-1.13.22-.34.82-.13 1.13-.55.22-.29.17-.7.05-.96-.26-.6-1.12-.87-1.63-.66-.8.33-1.01 2.03-.57 3.18.72 1.85 3.29 2.75 5.28 2.58 2.97-.25 6.02-2.93 6.02-6.02 0-1.41-.4-2.73-1.11-3.86a5 5 0 0 0 3.24.08 5.7 5.7 0 0 0 3.41-2.82c.61-1.13.76-2.44.44-3.69a4.8 4.8 0 0 0-2.14-2.94q-.66-.4-1.37-.49c-.68-.09-1.2.04-1.48.11-.76.2-1.25.56-1.36.64-.42.3-.8.59-.96 1.12-.04.13-.24.78.12 1.23.25.29.72.48 1.04.27.4-.26.28-1 .27-1.05-.06-.37-.23-.42-.21-.59.07-.58 2.07-1.28 3.54-.48.6.33.98.85 1.11 1.02a4.2 4.2 0 0 1 .28 4.42 5 5 0 0 1-2.91 2.4 4.5 4.5 0 0 1-3.64-.48q-.19-.1-.36-.02a7 7 0 0 0-2.87-1.84c1.4-3.22 1.53-6.79.37-10.12a14 14 0 0 0-4.28-6.18q.15-.37.23-.93c2.27-7.72 9.33-11.91 15.05-10.49 4.9 1.21 9.25 6.66 8.31 11.93a8.13 8.13 0 0 1-9.43 6.56 6.4 6.4 0 0 1-5.17-7.42c.46-2.55 3.43-4.22 5.82-4.06 1.45.1 3.16.91 3.68 2.15.05.12.35.83.06 1.15s-.83-.01-1.21.35c-.26.24-.29.66-.22.93.15.64.95 1.06 1.49.94.85-.19 1.35-1.81 1.12-3.03-.38-1.94-2.75-3.28-4.74-3.47-2.96-.28-6.44 1.82-6.98 4.86a7.4 7.4 0 0 0 5.97 8.59 9.14 9.14 0 0 0 10.59-7.37 11.3 11.3 0 0 0-9.11-13.09c-2.78-.5-5.76.22-5.76.22l-.61.15c1.08-1 1.55-2.4 1.2-3.62-.46-1.57-2.17-2.51-2.44-2.28-.11.09-.07.45.7 1.74-.37.03-.47.18-.49.23-.15.28.15.83.84 1.32-.21.1-.46.27-.47.48 0 .24.3.35.42.58.15.27.11.79-.76 1.87l-.64.24c-.58.25-2.83 1.24-4.93 3.58q-.2.21-.45.51c-.55-.34-1.47-.75-1.75-.88 0 0-1.82-.84-3.99-2.38-.74-.51-2.1-1.49-3.41-3.14-.71-.89-1.9-2.41-2.46-4.72a12 12 0 0 1-.29-3.38 8.6 8.6 0 0 1 3.01-6 8.8 8.8 0 0 1 6.43-2.07 7.1 7.1 0 0 1 6.53 7.49 5.3 5.3 0 0 1-1.87 3.73 5.5 5.5 0 0 1-4.01 1.3c-2.05-.17-4.25-2.48-4.03-4.63.17-1.68 1.79-3.07 2.41-2.85.35.13.27.74.87 1.08.32.17.82.27 1.14.02.4-.31.31-1 .11-1.41-.2-.39-.56-.66-.87-.77-1.46-.52-4.36 1.51-4.52 3.86a5.2 5.2 0 0 0 1.27 3.75 5.3 5.3 0 0 0 3.57 1.8c1.7.13 3.34-.4 4.62-1.49a6.2 6.2 0 0 0 2.07-3.53c.5.57 1.78 1.86 2.99 1.63.23-.04.68-.19.68-.34-.01-.17-.61-.29-1.13-.36.4-.16.48-.25.47-.3-.03-.13-.78.04-1.48-.18a2.8 2.8 0 0 1-1.43-1.24c.04-.74.05-2.99-1.49-5.11a8.5 8.5 0 0 0-9.6-2.87 10 10 0 0 0-3.29 1.84 9.4 9.4 0 0 0-3.31 6.59q-.11 1.86.31 3.64c.61 2.47 1.88 4.1 2.65 5.07 1.16 1.47 2.27 2.34 3.34 3.18a28 28 0 0 0 5.83 3.48 13 13 0 0 0-2.2 5.46q-.09.22-.13.43-.91-.63-1.93-1.13a11.3 11.3 0 0 0-15.07 5.23 9.7 9.7 0 0 0-.07 7.74 9.4 9.4 0 0 0 4.31 4.45c.31.57.6 1.33.42 2.14-.18.83-.8 1.48-.68 1.59.04.04.17.01.58-.3-.23.56-.47 1.23-.3 1.34.15.1.56-.29.74-.48.95-1.08.38-3.1.1-3.94A7.3 7.3 0 0 0-47.45-9a7.4 7.4 0 0 0 4.23-3.77 6 6 0 0 0 .27-4.59 6 6 0 0 0-3.06-3.44c-2.48-1.21-6.24.53-6.57 2.28-.07.38-.01.9.27 1.31.3.44.95.93 1.49.71.44-.17.64-.73.65-1.15.01-.79-.65-1.07-.58-1.49.13-.75 2.5-1.56 4.3-.76 2.31 1.02 3.37 4.55 2.33 6.7a6.4 6.4 0 0 1-3.66 3.25 6.4 6.4 0 0 1-4.89-.28 8.13 8.13 0 0 1-3.77-10.85 10.24 10.24 0 0 1 13.73-4.77 13 13 0 0 1 6.6 7.42c1.09 3.14.95 6.5-.4 9.52q-.72-.15-1.47-.15A9.13 9.13 0 0 0-47.1.06c0 5.65 4.17 10.34 9.59 11.15a12 12 0 0 0-3.86 4.12 13.5 13.5 0 0 0-1.89 5.55l-.04.66c-.75 1.1-1.21 1.29-1.5 1.23-.25-.06-.43-.3-.65-.23-.19.07-.27.35-.31.57-.64-.5-1.24-.62-1.45-.4-.04.03-.14.16-.07.52-1.41-.35-1.75-.28-1.8-.16-.14.31 1.22 1.63 2.79 1.6 1.22-.02 2.37-.84 2.99-2.12l.03.6s.18 2.95 1.43 5.37a10.87 10.87 0 0 0 14.61 4.71 8.8 8.8 0 0 0 3.76-11.83 7.13 7.13 0 0 0-9.58-3.09c-2.64 1.36-3.58 5.15-2.48 7.81.73 1.77 2.64 3.58 4.53 3.38 1.18-.12 2.53-1.05 2.46-1.88-.04-.53-.65-1.15-1.28-1.11-.27.01-.65.16-.8.46-.22.45.23.88.03 1.22-.21.36-.95.28-1.08.27-1.28-.13-2.51-1.48-3.01-2.78-.83-2.16-.14-5.37 2.07-6.51a6.17 6.17 0 0 1 8.29 2.67 7.83 7.83 0 0 1-3.36 10.53 9.9 9.9 0 0 1-13.31-4.29 12.5 12.5 0 0 1 5.22-16.74 16 16 0 0 0 6.14-1.5c-.88 1.18-1.09 2.64-.53 3.78.72 1.47 2.58 2.09 2.8 1.82.09-.11-.01-.45-1-1.59.36-.1.43-.26.44-.31.1-.3-.29-.8-1.05-1.15.18-.14.4-.35.37-.56-.04-.24-.35-.29-.52-.5-.19-.24-.24-.75.43-1.97l.58-.35c.53-.35 2.57-1.72 4.22-4.39a13 13 0 0 0 1.96-5.45 11.4 11.4 0 0 0 4.9 4.82c.76.35 4.1 1.77 7.74.19A9.4 9.4 0 0 0-4.78-.05a3 3 0 0 1 2.16-.39c.82.19 1.46.83 1.57.71.04-.05.01-.18-.29-.59C-.79-.08-.11.17 0 0Z" style="fill:none;stroke:#000;stroke-opacity:1;stroke-width:.75;stroke-linecap:butt;stroke-linejoin:miter;stroke-miterlimit:10;stroke-dasharray:none" transform="translate(132.97 80.26)"/><path d="M0 0q-1.03 0-2.04.31a6.8 6.8 0 0 0-3.99 3.34 5.5 5.5 0 0 0-.38 4.22 5.5 5.5 0 0 0 2.72 3.25q.8.41 1.68.5a5 5 0 0 0 1.77-.2 5 5 0 0 0 1.62-.77c.49-.36.94-.7 1.11-1.3.04-.16.26-.9-.2-1.4-.31-.32-.9-.53-1.27-.27-.47.32-.3 1.15-.28 1.2.1.42.3.47.28.67-.06.66-2.45 1.54-4.25.68A4 4 0 0 1-4.6 9.12a5 5 0 0 1-.84-1.55 4.5 4.5 0 0 1 .3-3.46 5.8 5.8 0 0 1 3.41-2.84 5.8 5.8 0 0 1 4.42.4.5.5 0 0 0 .67-.22.5.5 0 0 0-.2-.67A7 7 0 0 0 0 0" style="fill:#000;fill-opacity:1;fill-rule:nonzero;stroke:none" transform="translate(112.43 22.72)"/><path d="M0 0q-1.03 0-2.04.31a6.8 6.8 0 0 0-3.99 3.34 5.5 5.5 0 0 0-.38 4.22 5.5 5.5 0 0 0 2.72 3.25q.8.41 1.68.5a5 5 0 0 0 1.77-.2 5 5 0 0 0 1.62-.77c.49-.36.94-.7 1.11-1.3.04-.16.26-.9-.2-1.4-.31-.32-.9-.53-1.27-.27-.47.32-.3 1.15-.28 1.2.1.42.3.47.28.67-.06.66-2.45 1.54-4.25.68A4 4 0 0 1-4.6 9.12a5 5 0 0 1-.84-1.55 4.5 4.5 0 0 1 .3-3.46 5.8 5.8 0 0 1 3.41-2.84 5.8 5.8 0 0 1 4.42.4.5.5 0 0 0 .67-.22.5.5 0 0 0-.2-.67A7 7 0 0 0 0 0Z" style="fill:none;stroke:#000;stroke-opacity:1;stroke-width:.75;stroke-linecap:butt;stroke-linejoin:miter;stroke-miterlimit:10;stroke-dasharray:none" transform="translate(112.43 22.72)"/><path d="m0 0-.24-.07.02.02Q-.11 0 0 0" style="fill:#000;fill-opacity:1;fill-rule:nonzero;stroke:none" transform="translate(42.73 72.45)"/><path d="m0 0-.24-.07.02.02Q-.11 0 0 0Z" style="fill:none;stroke:#000;stroke-opacity:1;stroke-width:.75;stroke-linecap:butt;stroke-linejoin:miter;stroke-miterlimit:10;stroke-dasharray:none" transform="translate(42.73 72.45)"/><path d="M0 0c.1-.15-.28-.57-.48-.75-1.05-.96-3.09-.43-3.93-.16a7.4 7.4 0 0 0 .05-4.79 7.4 7.4 0 0 0-3.69-4.29 6 6 0 0 0-4.6-.34 6 6 0 0 0-3.48 3.01c-1.24 2.46.43 6.24 2.17 6.6.38.07.9.02 1.32-.25.45-.29.94-.94.74-1.48-.17-.45-.73-.65-1.15-.67-.79-.02-1.07.64-1.5.56-.74-.14-1.52-2.52-.69-4.31 1.06-2.3 4.6-3.3 6.74-2.23a6.4 6.4 0 0 1 3.19 3.71A6.4 6.4 0 0 1-5.67-.5a8.13 8.13 0 0 1-10.91 3.59 10.2 10.2 0 0 1-5.13-5.96c-.86-2.6-.65-5.39.58-7.84a13 13 0 0 1 7.52-6.48 13 13 0 0 1 9.9.74.5.5 0 0 0 .45-.9 14 14 0 0 0-10.66-.79 14 14 0 0 0-8.1 6.98 11 11 0 0 0-.73 8.29l-.11.23c0 7.16-5.81 12.98-12.97 12.98A10.3 10.3 0 0 1-46.1.06a8.13 8.13 0 0 1 8.12-8.12q.78 0 1.5.18l.24.07a6.4 6.4 0 0 1 4.66 6.14c0 2.59-2.64 4.76-5.02 5.02-1.44.16-3.27-.34-4-1.46-.07-.11-.49-.76-.26-1.13.22-.34.82-.13 1.13-.55.22-.29.17-.7.05-.96-.26-.6-1.12-.87-1.63-.66-.8.33-1.01 2.03-.57 3.18.72 1.85 3.29 2.75 5.28 2.58 2.97-.25 6.02-2.93 6.02-6.02 0-1.41-.4-2.73-1.11-3.86a5 5 0 0 0 3.24.08 5.7 5.7 0 0 0 3.41-2.82c.61-1.13.76-2.44.44-3.69a4.8 4.8 0 0 0-2.14-2.94q-.66-.4-1.37-.49c-.68-.09-1.2.04-1.48.11-.76.2-1.25.56-1.36.64-.42.3-.8.59-.96 1.12-.04.13-.24.78.12 1.23.25.29.72.48 1.04.27.4-.26.28-1 .27-1.05-.06-.37-.23-.42-.21-.59.07-.58 2.07-1.28 3.54-.48.6.33.98.85 1.11 1.02a4.2 4.2 0 0 1 .28 4.42 5 5 0 0 1-2.91 2.4 4.5 4.5 0 0 1-3.64-.48q-.19-.1-.36-.02a7 7 0 0 0-2.87-1.84c1.4-3.22 1.53-6.79.37-10.12a14 14 0 0 0-4.28-6.18q.15-.37.23-.93c2.27-7.72 9.33-11.91 15.05-10.49 4.9 1.21 9.25 6.66 8.31 11.93a8.13 8.13 0 0 1-9.43 6.56 6.4 6.4 0 0 1-5.17-7.42c.46-2.55 3.43-4.22 5.82-4.06 1.45.1 3.16.91 3.68 2.15.05.12.35.83.06 1.15s-.83-.01-1.21.35c-.26.24-.29.66-.22.93.15.64.95 1.06 1.49.94.85-.19 1.35-1.81 1.12-3.03-.38-1.94-2.75-3.28-4.74-3.47-2.96-.28-6.44 1.82-6.98 4.86a7.4 7.4 0 0 0 5.97 8.59 9.14 9.14 0 0 0 10.59-7.37 11.3 11.3 0 0 0-9.11-13.09c-2.78-.5-5.76.22-5.76.22l-.61.15c1.08-1 1.55-2.4 1.2-3.62-.46-1.57-2.17-2.51-2.44-2.28-.11.09-.07.45.7 1.74-.37.03-.47.18-.49.23-.15.28.15.83.84 1.32-.21.1-.46.27-.47.48 0 .24.3.35.42.58.15.27.11.79-.76 1.87l-.64.24c-.58.25-2.83 1.24-4.93 3.58q-.2.21-.45.51c-.55-.34-1.47-.75-1.75-.88 0 0-1.82-.84-3.99-2.38-.74-.51-2.1-1.49-3.41-3.14-.71-.89-1.9-2.41-2.46-4.72a12 12 0 0 1-.29-3.38 8.6 8.6 0 0 1 3.01-6 8.8 8.8 0 0 1 6.43-2.07 7.1 7.1 0 0 1 6.53 7.49 5.3 5.3 0 0 1-1.87 3.73 5.5 5.5 0 0 1-4.01 1.3c-2.05-.17-4.25-2.48-4.03-4.63.17-1.68 1.79-3.07 2.41-2.85.35.13.27.74.87 1.08.32.17.82.27 1.14.02.4-.31.31-1 .11-1.41-.2-.39-.56-.66-.87-.77-1.46-.52-4.36 1.51-4.52 3.86a5.2 5.2 0 0 0 1.27 3.75 5.3 5.3 0 0 0 3.57 1.8c1.7.13 3.34-.4 4.62-1.49a6.2 6.2 0 0 0 2.07-3.53c.5.57 1.78 1.86 2.99 1.63.23-.04.68-.19.68-.34-.01-.17-.61-.29-1.13-.36.4-.16.48-.25.47-.3-.03-.13-.78.04-1.48-.18a2.8 2.8 0 0 1-1.43-1.24c.04-.74.05-2.99-1.49-5.11a8.5 8.5 0 0 0-9.6-2.87 10 10 0 0 0-3.29 1.84 9.4 9.4 0 0 0-3.31 6.59q-.11 1.86.31 3.64c.61 2.47 1.88 4.1 2.65 5.07 1.16 1.47 2.27 2.34 3.34 3.18a28 28 0 0 0 5.83 3.48 13 13 0 0 0-2.2 5.46q-.09.22-.13.43-.91-.63-1.93-1.13a11.3 11.3 0 0 0-15.07 5.23 9.7 9.7 0 0 0-.07 7.74 9.4 9.4 0 0 0 4.31 4.45c.31.57.6 1.33.42 2.14-.18.83-.8 1.48-.68 1.59.04.04.17.01.58-.3-.23.56-.47 1.23-.3 1.34.15.1.56-.29.74-.48.95-1.08.38-3.1.1-3.94A7.3 7.3 0 0 0-47.45-9a7.4 7.4 0 0 0 4.23-3.77 6 6 0 0 0 .27-4.59 6 6 0 0 0-3.06-3.44c-2.48-1.21-6.24.53-6.57 2.28-.07.38-.01.9.27 1.31.3.44.95.93 1.49.71.44-.17.64-.73.65-1.15.01-.79-.65-1.07-.58-1.49.13-.75 2.5-1.56 4.3-.76 2.31 1.02 3.37 4.55 2.33 6.7a6.4 6.4 0 0 1-3.66 3.25 6.4 6.4 0 0 1-4.89-.28 8.13 8.13 0 0 1-3.77-10.85 10.24 10.24 0 0 1 13.73-4.77 13 13 0 0 1 6.6 7.42c1.09 3.14.95 6.5-.4 9.52q-.72-.15-1.47-.15A9.13 9.13 0 0 0-47.1.06c0 5.65 4.17 10.34 9.59 11.15a12 12 0 0 0-3.86 4.12 13.5 13.5 0 0 0-1.89 5.55l-.04.66c-.75 1.1-1.21 1.29-1.5 1.23-.25-.06-.43-.3-.65-.23-.19.07-.27.35-.31.57-.64-.5-1.24-.62-1.45-.4-.04.03-.14.16-.07.52-1.41-.35-1.75-.28-1.8-.16-.14.31 1.22 1.63 2.79 1.6 1.22-.02 2.37-.84 2.99-2.12l.03.6s.18 2.95 1.43 5.37a10.87 10.87 0 0 0 14.61 4.71 8.8 8.8 0 0 0 3.76-11.83 7.13 7.13 0 0 0-9.58-3.09c-2.64 1.36-3.58 5.15-2.48 7.81.73 1.77 2.64 3.58 4.53 3.38 1.18-.12 2.53-1.05 2.46-1.88-.04-.53-.65-1.15-1.28-1.11-.27.01-.65.16-.8.46-.22.45.23.88.03 1.22-.21.36-.95.28-1.08.27-1.28-.13-2.51-1.48-3.01-2.78-.83-2.16-.14-5.37 2.07-6.51a6.17 6.17 0 0 1 8.29 2.67 7.83 7.83 0 0 1-3.36 10.53 9.9 9.9 0 0 1-13.31-4.29 12.5 12.5 0 0 1 5.22-16.74 16 16 0 0 0 6.14-1.5c-.88 1.18-1.09 2.64-.53 3.78.72 1.47 2.58 2.09 2.8 1.82.09-.11-.01-.45-1-1.59.36-.1.43-.26.44-.31.1-.3-.29-.8-1.05-1.15.18-.14.4-.35.37-.56-.04-.24-.35-.29-.52-.5-.19-.24-.24-.75.43-1.97l.58-.35c.53-.35 2.57-1.72 4.22-4.39a13 13 0 0 0 1.96-5.45 11.4 11.4 0 0 0 4.9 4.82c.76.35 4.1 1.77 7.74.19A9.4 9.4 0 0 0-4.78-.05a3 3 0 0 1 2.16-.39c.82.19 1.46.83 1.57.71.04-.05.01-.18-.29-.59C-.79-.08-.11.17 0 0" style="fill:#000;fill-opacity:1;fill-rule:nonzero;stroke:none" transform="translate(78.97 80.26)"/><path d="M0 0c.1-.15-.28-.57-.48-.75-1.05-.96-3.09-.43-3.93-.16a7.4 7.4 0 0 0 .05-4.79 7.4 7.4 0 0 0-3.69-4.29 6 6 0 0 0-4.6-.34 6 6 0 0 0-3.48 3.01c-1.24 2.46.43 6.24 2.17 6.6.38.07.9.02 1.32-.25.45-.29.94-.94.74-1.48-.17-.45-.73-.65-1.15-.67-.79-.02-1.07.64-1.5.56-.74-.14-1.52-2.52-.69-4.31 1.06-2.3 4.6-3.3 6.74-2.23a6.4 6.4 0 0 1 3.19 3.71A6.4 6.4 0 0 1-5.67-.5a8.13 8.13 0 0 1-10.91 3.59 10.2 10.2 0 0 1-5.13-5.96c-.86-2.6-.65-5.39.58-7.84a13 13 0 0 1 7.52-6.48 13 13 0 0 1 9.9.74.5.5 0 0 0 .45-.9 14 14 0 0 0-10.66-.79 14 14 0 0 0-8.1 6.98 11 11 0 0 0-.73 8.29l-.11.23c0 7.16-5.81 12.98-12.97 12.98A10.3 10.3 0 0 1-46.1.06a8.13 8.13 0 0 1 8.12-8.12q.78 0 1.5.18l.24.07a6.4 6.4 0 0 1 4.66 6.14c0 2.59-2.64 4.76-5.02 5.02-1.44.16-3.27-.34-4-1.46-.07-.11-.49-.76-.26-1.13.22-.34.82-.13 1.13-.55.22-.29.17-.7.05-.96-.26-.6-1.12-.87-1.63-.66-.8.33-1.01 2.03-.57 3.18.72 1.85 3.29 2.75 5.28 2.58 2.97-.25 6.02-2.93 6.02-6.02 0-1.41-.4-2.73-1.11-3.86a5 5 0 0 0 3.24.08 5.7 5.7 0 0 0 3.41-2.82c.61-1.13.76-2.44.44-3.69a4.8 4.8 0 0 0-2.14-2.94q-.66-.4-1.37-.49c-.68-.09-1.2.04-1.48.11-.76.2-1.25.56-1.36.64-.42.3-.8.59-.96 1.12-.04.13-.24.78.12 1.23.25.29.72.48 1.04.27.4-.26.28-1 .27-1.05-.06-.37-.23-.42-.21-.59.07-.58 2.07-1.28 3.54-.48.6.33.98.85 1.11 1.02a4.2 4.2 0 0 1 .28 4.42 5 5 0 0 1-2.91 2.4 4.5 4.5 0 0 1-3.64-.48q-.19-.1-.36-.02a7 7 0 0 0-2.87-1.84c1.4-3.22 1.53-6.79.37-10.12a14 14 0 0 0-4.28-6.18q.15-.37.23-.93c2.27-7.72 9.33-11.91 15.05-10.49 4.9 1.21 9.25 6.66 8.31 11.93a8.13 8.13 0 0 1-9.43 6.56 6.4 6.4 0 0 1-5.17-7.42c.46-2.55 3.43-4.22 5.82-4.06 1.45.1 3.16.91 3.68 2.15.05.12.35.83.06 1.15s-.83-.01-1.21.35c-.26.24-.29.66-.22.93.15.64.95 1.06 1.49.94.85-.19 1.35-1.81 1.12-3.03-.38-1.94-2.75-3.28-4.74-3.47-2.96-.28-6.44 1.82-6.98 4.86a7.4 7.4 0 0 0 5.97 8.59 9.14 9.14 0 0 0 10.59-7.37 11.3 11.3 0 0 0-9.11-13.09c-2.78-.5-5.76.22-5.76.22l-.61.15c1.08-1 1.55-2.4 1.2-3.62-.46-1.57-2.17-2.51-2.44-2.28-.11.09-.07.45.7 1.74-.37.03-.47.18-.49.23-.15.28.15.83.84 1.32-.21.1-.46.27-.47.48 0 .24.3.35.42.58.15.27.11.79-.76 1.87l-.64.24c-.58.25-2.83 1.24-4.93 3.58q-.2.21-.45.51c-.55-.34-1.47-.75-1.75-.88 0 0-1.82-.84-3.99-2.38-.74-.51-2.1-1.49-3.41-3.14-.71-.89-1.9-2.41-2.46-4.72a12 12 0 0 1-.29-3.38 8.6 8.6 0 0 1 3.01-6 8.8 8.8 0 0 1 6.43-2.07 7.1 7.1 0 0 1 6.53 7.49 5.3 5.3 0 0 1-1.87 3.73 5.5 5.5 0 0 1-4.01 1.3c-2.05-.17-4.25-2.48-4.03-4.63.17-1.68 1.79-3.07 2.41-2.85.35.13.27.74.87 1.08.32.17.82.27 1.14.02.4-.31.31-1 .11-1.41-.2-.39-.56-.66-.87-.77-1.46-.52-4.36 1.51-4.52 3.86a5.2 5.2 0 0 0 1.27 3.75 5.3 5.3 0 0 0 3.57 1.8c1.7.13 3.34-.4 4.62-1.49a6.2 6.2 0 0 0 2.07-3.53c.5.57 1.78 1.86 2.99 1.63.23-.04.68-.19.68-.34-.01-.17-.61-.29-1.13-.36.4-.16.48-.25.47-.3-.03-.13-.78.04-1.48-.18a2.8 2.8 0 0 1-1.43-1.24c.04-.74.05-2.99-1.49-5.11a8.5 8.5 0 0 0-9.6-2.87 10 10 0 0 0-3.29 1.84 9.4 9.4 0 0 0-3.31 6.59q-.11 1.86.31 3.64c.61 2.47 1.88 4.1 2.65 5.07 1.16 1.47 2.27 2.34 3.34 3.18a28 28 0 0 0 5.83 3.48 13 13 0 0 0-2.2 5.46q-.09.22-.13.43-.91-.63-1.93-1.13a11.3 11.3 0 0 0-15.07 5.23 9.7 9.7 0 0 0-.07 7.74 9.4 9.4 0 0 0 4.31 4.45c.31.57.6 1.33.42 2.14-.18.83-.8 1.48-.68 1.59.04.04.17.01.58-.3-.23.56-.47 1.23-.3 1.34.15.1.56-.29.74-.48.95-1.08.38-3.1.1-3.94A7.3 7.3 0 0 0-47.45-9a7.4 7.4 0 0 0 4.23-3.77 6 6 0 0 0 .27-4.59 6 6 0 0 0-3.06-3.44c-2.48-1.21-6.24.53-6.57 2.28-.07.38-.01.9.27 1.31.3.44.95.93 1.49.71.44-.17.64-.73.65-1.15.01-.79-.65-1.07-.58-1.49.13-.75 2.5-1.56 4.3-.76 2.31 1.02 3.37 4.55 2.33 6.7a6.4 6.4 0 0 1-3.66 3.25 6.4 6.4 0 0 1-4.89-.28 8.13 8.13 0 0 1-3.77-10.85 10.24 10.24 0 0 1 13.73-4.77 13 13 0 0 1 6.6 7.42c1.09 3.14.95 6.5-.4 9.52q-.72-.15-1.47-.15A9.13 9.13 0 0 0-47.1.06c0 5.65 4.17 10.34 9.59 11.15a12 12 0 0 0-3.86 4.12 13.5 13.5 0 0 0-1.89 5.55l-.04.66c-.75 1.1-1.21 1.29-1.5 1.23-.25-.06-.43-.3-.65-.23-.19.07-.27.35-.31.57-.64-.5-1.24-.62-1.45-.4-.04.03-.14.16-.07.52-1.41-.35-1.75-.28-1.8-.16-.14.31 1.22 1.63 2.79 1.6 1.22-.02 2.37-.84 2.99-2.12l.03.6s.18 2.95 1.43 5.37a10.87 10.87 0 0 0 14.61 4.71 8.8 8.8 0 0 0 3.76-11.83 7.13 7.13 0 0 0-9.58-3.09c-2.64 1.36-3.58 5.15-2.48 7.81.73 1.77 2.64 3.58 4.53 3.38 1.18-.12 2.53-1.05 2.46-1.88-.04-.53-.65-1.15-1.28-1.11-.27.01-.65.16-.8.46-.22.45.23.88.03 1.22-.21.36-.95.28-1.08.27-1.28-.13-2.51-1.48-3.01-2.78-.83-2.16-.14-5.37 2.07-6.51a6.17 6.17 0 0 1 8.29 2.67 7.83 7.83 0 0 1-3.36 10.53 9.9 9.9 0 0 1-13.31-4.29 12.5 12.5 0 0 1 5.22-16.74 16 16 0 0 0 6.14-1.5c-.88 1.18-1.09 2.64-.53 3.78.72 1.47 2.58 2.09 2.8 1.82.09-.11-.01-.45-1-1.59.36-.1.43-.26.44-.31.1-.3-.29-.8-1.05-1.15.18-.14.4-.35.37-.56-.04-.24-.35-.29-.52-.5-.19-.24-.24-.75.43-1.97l.58-.35c.53-.35 2.57-1.72 4.22-4.39a13 13 0 0 0 1.96-5.45 11.4 11.4 0 0 0 4.9 4.82c.76.35 4.1 1.77 7.74.19A9.4 9.4 0 0 0-4.78-.05a3 3 0 0 1 2.16-.39c.82.19 1.46.83 1.57.71.04-.05.01-.18-.29-.59C-.79-.08-.11.17 0 0Z" style="fill:none;stroke:#000;stroke-opacity:1;stroke-width:.75;stroke-linecap:butt;stroke-linejoin:miter;stroke-miterlimit:10;stroke-dasharray:none" transform="translate(78.97 80.26)"/><path d="M0 0q-1.03 0-2.04.31a6.8 6.8 0 0 0-3.99 3.34 5.5 5.5 0 0 0-.38 4.22 5.5 5.5 0 0 0 2.72 3.25q.8.41 1.68.5a5 5 0 0 0 1.77-.2 5 5 0 0 0 1.62-.77c.49-.36.94-.7 1.11-1.3.04-.16.26-.9-.2-1.4-.31-.32-.9-.53-1.27-.27-.47.32-.3 1.15-.28 1.2.1.42.3.47.28.67-.06.66-2.45 1.54-4.25.68A4 4 0 0 1-4.6 9.12a5 5 0 0 1-.84-1.55 4.5 4.5 0 0 1 .3-3.46 5.8 5.8 0 0 1 3.41-2.84 5.8 5.8 0 0 1 4.42.4.5.5 0 0 0 .67-.22.5.5 0 0 0-.2-.67A7 7 0 0 0 0 0" style="fill:#000;fill-opacity:1;fill-rule:nonzero;stroke:none" transform="translate(58.43 22.72)"/><path d="M0 0q-1.03 0-2.04.31a6.8 6.8 0 0 0-3.99 3.34 5.5 5.5 0 0 0-.38 4.22 5.5 5.5 0 0 0 2.72 3.25q.8.41 1.68.5a5 5 0 0 0 1.77-.2 5 5 0 0 0 1.62-.77c.49-.36.94-.7 1.11-1.3.04-.16.26-.9-.2-1.4-.31-.32-.9-.53-1.27-.27-.47.32-.3 1.15-.28 1.2.1.42.3.47.28.67-.06.66-2.45 1.54-4.25.68A4 4 0 0 1-4.6 9.12a5 5 0 0 1-.84-1.55 4.5 4.5 0 0 1 .3-3.46 5.8 5.8 0 0 1 3.41-2.84 5.8 5.8 0 0 1 4.42.4.5.5 0 0 0 .67-.22.5.5 0 0 0-.2-.67A7 7 0 0 0 0 0Z" style="fill:none;stroke:#000;stroke-opacity:1;stroke-width:.75;stroke-linecap:butt;stroke-linejoin:miter;stroke-miterlimit:10;stroke-dasharray:none" transform="translate(58.43 22.72)"/><path d="M0 0c.1-.15-.28-.57-.48-.75-1.05-.96-3.09-.43-3.93-.16a7.4 7.4 0 0 0 .05-4.79 7.4 7.4 0 0 0-3.69-4.29 6 6 0 0 0-4.6-.34 6 6 0 0 0-3.48 3.01c-1.24 2.46.43 6.24 2.17 6.6.38.07.9.02 1.32-.25.45-.29.94-.94.74-1.48-.17-.45-.73-.65-1.15-.67-.79-.02-1.07.64-1.5.56-.74-.14-1.52-2.52-.69-4.31 1.06-2.3 4.6-3.3 6.74-2.23a6.4 6.4 0 0 1 3.19 3.71A6.4 6.4 0 0 1-5.67-.5a8.13 8.13 0 0 1-10.91 3.59 10.2 10.2 0 0 1-5.13-5.96c-.86-2.6-.65-5.39.58-7.84a13 13 0 0 1 7.52-6.48 13 13 0 0 1 9.9.74.5.5 0 0 0 .45-.9 14 14 0 0 0-10.66-.79 14 14 0 0 0-8.1 6.98 11 11 0 0 0-.73 8.29l-.11.23c0 7.16-5.81 12.98-12.97 12.98A10.3 10.3 0 0 1-46.1.06a8.13 8.13 0 0 1 8.12-8.12q.78 0 1.5.18l.24.07a6.4 6.4 0 0 1 4.66 6.14c0 2.59-2.64 4.76-5.02 5.02-1.44.16-3.27-.34-4-1.46-.07-.11-.49-.76-.26-1.13.22-.34.82-.13 1.13-.55.22-.29.17-.7.05-.96-.26-.6-1.12-.87-1.63-.66-.8.33-1.01 2.03-.57 3.18.72 1.85 3.29 2.75 5.28 2.58 2.97-.25 6.02-2.93 6.02-6.02 0-1.41-.4-2.73-1.11-3.86a5 5 0 0 0 3.24.08 5.7 5.7 0 0 0 3.41-2.82c.61-1.13.76-2.44.44-3.69a4.8 4.8 0 0 0-2.14-2.94q-.66-.4-1.37-.49c-.68-.09-1.2.04-1.48.11-.76.2-1.25.56-1.36.64-.42.3-.8.59-.96 1.12-.04.13-.24.78.12 1.23.25.29.72.48 1.04.27.4-.26.28-1 .27-1.05-.06-.37-.23-.42-.21-.59.07-.58 2.07-1.28 3.54-.48.6.33.98.85 1.11 1.02a4.2 4.2 0 0 1 .28 4.42 5 5 0 0 1-2.91 2.4 4.5 4.5 0 0 1-3.64-.48q-.19-.1-.36-.02a7 7 0 0 0-2.87-1.84c1.4-3.22 1.53-6.79.37-10.12a14 14 0 0 0-4.28-6.18q.15-.37.23-.93c2.27-7.72 9.33-11.91 15.05-10.49 4.9 1.21 9.25 6.66 8.31 11.93a8.13 8.13 0 0 1-9.43 6.56 6.4 6.4 0 0 1-5.17-7.42c.46-2.55 3.43-4.22 5.82-4.06 1.45.1 3.16.91 3.68 2.15.05.12.35.83.06 1.15s-.83-.01-1.21.35c-.26.24-.29.66-.22.93.15.64.95 1.06 1.49.94.85-.19 1.35-1.81 1.12-3.03-.38-1.94-2.75-3.28-4.74-3.47-2.96-.28-6.44 1.82-6.98 4.86a7.4 7.4 0 0 0 5.97 8.59 9.14 9.14 0 0 0 10.59-7.37 11.3 11.3 0 0 0-9.11-13.09c-2.78-.5-5.76.22-5.76.22l-.61.15c1.08-1 1.55-2.4 1.2-3.62-.46-1.57-2.17-2.51-2.44-2.28-.11.09-.07.45.7 1.74-.37.03-.47.18-.49.23-.15.28.15.83.84 1.32-.21.1-.46.27-.47.48 0 .24.3.35.42.58.15.27.11.79-.76 1.87l-.64.24c-.58.25-2.83 1.24-4.93 3.58q-.2.21-.45.51c-.55-.34-1.47-.75-1.75-.88 0 0-1.82-.84-3.99-2.38-.74-.51-2.1-1.49-3.41-3.14-.71-.89-1.9-2.41-2.46-4.72a12 12 0 0 1-.29-3.38 8.6 8.6 0 0 1 3.01-6 8.8 8.8 0 0 1 6.43-2.07 7.1 7.1 0 0 1 6.53 7.49 5.3 5.3 0 0 1-1.87 3.73 5.5 5.5 0 0 1-4.01 1.3c-2.05-.17-4.25-2.48-4.03-4.63.17-1.68 1.79-3.07 2.41-2.85.35.13.27.74.87 1.08.32.17.82.27 1.14.02.4-.31.31-1 .11-1.41-.2-.39-.56-.66-.87-.77-1.46-.52-4.36 1.51-4.52 3.86a5.2 5.2 0 0 0 1.27 3.75 5.3 5.3 0 0 0 3.57 1.8c1.7.13 3.34-.4 4.62-1.49a6.2 6.2 0 0 0 2.07-3.53c.5.57 1.78 1.86 2.99 1.63.23-.04.68-.19.68-.34-.01-.17-.61-.29-1.13-.36.4-.16.48-.25.47-.3-.03-.13-.78.04-1.48-.18a2.8 2.8 0 0 1-1.43-1.24c.04-.74.05-2.99-1.49-5.11a8.5 8.5 0 0 0-9.6-2.87 10 10 0 0 0-3.29 1.84 9.4 9.4 0 0 0-3.31 6.59q-.11 1.86.31 3.64c.61 2.47 1.88 4.1 2.65 5.07 1.16 1.47 2.27 2.34 3.34 3.18a28 28 0 0 0 5.83 3.48 13 13 0 0 0-2.2 5.46q-.09.22-.13.43-.91-.63-1.93-1.13a11.3 11.3 0 0 0-15.07 5.23 9.7 9.7 0 0 0-.07 7.74 9.4 9.4 0 0 0 4.31 4.45c.31.57.6 1.33.42 2.14-.18.83-.8 1.48-.68 1.59.04.04.17.01.58-.3-.23.56-.47 1.23-.3 1.34.15.1.56-.29.74-.48.95-1.08.38-3.1.1-3.94A7.3 7.3 0 0 0-47.45-9a7.4 7.4 0 0 0 4.23-3.77 6 6 0 0 0 .27-4.59 6 6 0 0 0-3.06-3.44c-2.48-1.21-6.24.53-6.57 2.28-.07.38-.01.9.27 1.31.3.44.95.93 1.49.71.44-.17.64-.73.65-1.15.01-.79-.65-1.07-.58-1.49.13-.75 2.5-1.56 4.3-.76 2.31 1.02 3.37 4.55 2.33 6.7a6.4 6.4 0 0 1-3.66 3.25 6.4 6.4 0 0 1-4.89-.28 8.13 8.13 0 0 1-3.77-10.85 10.24 10.24 0 0 1 13.73-4.77 13 13 0 0 1 6.6 7.42c1.09 3.14.95 6.5-.4 9.52q-.72-.15-1.47-.15A9.13 9.13 0 0 0-47.1.06c0 5.65 4.17 10.34 9.59 11.15a12 12 0 0 0-3.86 4.12 13.5 13.5 0 0 0-1.89 5.55l-.04.66c-.75 1.1-1.21 1.29-1.5 1.23-.25-.06-.43-.3-.65-.23-.19.07-.27.35-.31.57-.64-.5-1.24-.62-1.45-.4-.04.03-.14.16-.07.52-1.41-.35-1.75-.28-1.8-.16-.14.31 1.22 1.63 2.79 1.6 1.22-.02 2.37-.84 2.99-2.12l.03.6s.18 2.95 1.43 5.37a10.87 10.87 0 0 0 14.61 4.71 8.8 8.8 0 0 0 3.76-11.83 7.13 7.13 0 0 0-9.58-3.09c-2.64 1.36-3.58 5.15-2.48 7.81.73 1.77 2.64 3.58 4.53 3.38 1.18-.12 2.53-1.05 2.46-1.88-.04-.53-.65-1.15-1.28-1.11-.27.01-.65.16-.8.46-.22.45.23.88.03 1.22-.21.36-.95.28-1.08.27-1.28-.13-2.51-1.48-3.01-2.78-.83-2.16-.14-5.37 2.07-6.51a6.17 6.17 0 0 1 8.29 2.67 7.83 7.83 0 0 1-3.36 10.53 9.9 9.9 0 0 1-13.31-4.29 12.5 12.5 0 0 1 5.22-16.74 16 16 0 0 0 6.14-1.5c-.88 1.18-1.09 2.64-.53 3.78.72 1.47 2.58 2.09 2.8 1.82.09-.11-.01-.45-1-1.59.36-.1.43-.26.44-.31.1-.3-.29-.8-1.05-1.15.18-.14.4-.35.37-.56-.04-.24-.35-.29-.52-.5-.19-.24-.24-.75.43-1.97l.58-.35c.53-.35 2.57-1.72 4.22-4.39a13 13 0 0 0 1.96-5.45 11.4 11.4 0 0 0 4.9 4.82c.76.35 4.1 1.77 7.74.19A9.4 9.4 0 0 0-4.78-.05a3 3 0 0 1 2.16-.39c.82.19 1.46.83 1.57.71.04-.05.01-.18-.29-.59C-.79-.08-.11.17 0 0" style="fill:#000;fill-opacity:1;fill-rule:nonzero;stroke:none" transform="translate(24.97 80.26)"/><path d="M0 0c.1-.15-.28-.57-.48-.75-1.05-.96-3.09-.43-3.93-.16a7.4 7.4 0 0 0 .05-4.79 7.4 7.4 0 0 0-3.69-4.29 6 6 0 0 0-4.6-.34 6 6 0 0 0-3.48 3.01c-1.24 2.46.43 6.24 2.17 6.6.38.07.9.02 1.32-.25.45-.29.94-.94.74-1.48-.17-.45-.73-.65-1.15-.67-.79-.02-1.07.64-1.5.56-.74-.14-1.52-2.52-.69-4.31 1.06-2.3 4.6-3.3 6.74-2.23a6.4 6.4 0 0 1 3.19 3.71A6.4 6.4 0 0 1-5.67-.5a8.13 8.13 0 0 1-10.91 3.59 10.2 10.2 0 0 1-5.13-5.96c-.86-2.6-.65-5.39.58-7.84a13 13 0 0 1 7.52-6.48 13 13 0 0 1 9.9.74.5.5 0 0 0 .45-.9 14 14 0 0 0-10.66-.79 14 14 0 0 0-8.1 6.98 11 11 0 0 0-.73 8.29l-.11.23c0 7.16-5.81 12.98-12.97 12.98A10.3 10.3 0 0 1-46.1.06a8.13 8.13 0 0 1 8.12-8.12q.78 0 1.5.18l.24.07a6.4 6.4 0 0 1 4.66 6.14c0 2.59-2.64 4.76-5.02 5.02-1.44.16-3.27-.34-4-1.46-.07-.11-.49-.76-.26-1.13.22-.34.82-.13 1.13-.55.22-.29.17-.7.05-.96-.26-.6-1.12-.87-1.63-.66-.8.33-1.01 2.03-.57 3.18.72 1.85 3.29 2.75 5.28 2.58 2.97-.25 6.02-2.93 6.02-6.02 0-1.41-.4-2.73-1.11-3.86a5 5 0 0 0 3.24.08 5.7 5.7 0 0 0 3.41-2.82c.61-1.13.76-2.44.44-3.69a4.8 4.8 0 0 0-2.14-2.94q-.66-.4-1.37-.49c-.68-.09-1.2.04-1.48.11-.76.2-1.25.56-1.36.64-.42.3-.8.59-.96 1.12-.04.13-.24.78.12 1.23.25.29.72.48 1.04.27.4-.26.28-1 .27-1.05-.06-.37-.23-.42-.21-.59.07-.58 2.07-1.28 3.54-.48.6.33.98.85 1.11 1.02a4.2 4.2 0 0 1 .28 4.42 5 5 0 0 1-2.91 2.4 4.5 4.5 0 0 1-3.64-.48q-.19-.1-.36-.02a7 7 0 0 0-2.87-1.84c1.4-3.22 1.53-6.79.37-10.12a14 14 0 0 0-4.28-6.18q.15-.37.23-.93c2.27-7.72 9.33-11.91 15.05-10.49 4.9 1.21 9.25 6.66 8.31 11.93a8.13 8.13 0 0 1-9.43 6.56 6.4 6.4 0 0 1-5.17-7.42c.46-2.55 3.43-4.22 5.82-4.06 1.45.1 3.16.91 3.68 2.15.05.12.35.83.06 1.15s-.83-.01-1.21.35c-.26.24-.29.66-.22.93.15.64.95 1.06 1.49.94.85-.19 1.35-1.81 1.12-3.03-.38-1.94-2.75-3.28-4.74-3.47-2.96-.28-6.44 1.82-6.98 4.86a7.4 7.4 0 0 0 5.97 8.59 9.14 9.14 0 0 0 10.59-7.37 11.3 11.3 0 0 0-9.11-13.09c-2.78-.5-5.76.22-5.76.22l-.61.15c1.08-1 1.55-2.4 1.2-3.62-.46-1.57-2.17-2.51-2.44-2.28-.11.09-.07.45.7 1.74-.37.03-.47.18-.49.23-.15.28.15.83.84 1.32-.21.1-.46.27-.47.48 0 .24.3.35.42.58.15.27.11.79-.76 1.87l-.64.24c-.58.25-2.83 1.24-4.93 3.58q-.2.21-.45.51c-.55-.34-1.47-.75-1.75-.88 0 0-1.82-.84-3.99-2.38-.74-.51-2.1-1.49-3.41-3.14-.71-.89-1.9-2.41-2.46-4.72a12 12 0 0 1-.29-3.38 8.6 8.6 0 0 1 3.01-6 8.8 8.8 0 0 1 6.43-2.07 7.1 7.1 0 0 1 6.53 7.49 5.3 5.3 0 0 1-1.87 3.73 5.5 5.5 0 0 1-4.01 1.3c-2.05-.17-4.25-2.48-4.03-4.63.17-1.68 1.79-3.07 2.41-2.85.35.13.27.74.87 1.08.32.17.82.27 1.14.02.4-.31.31-1 .11-1.41-.2-.39-.56-.66-.87-.77-1.46-.52-4.36 1.51-4.52 3.86a5.2 5.2 0 0 0 1.27 3.75 5.3 5.3 0 0 0 3.57 1.8c1.7.13 3.34-.4 4.62-1.49a6.2 6.2 0 0 0 2.07-3.53c.5.57 1.78 1.86 2.99 1.63.23-.04.68-.19.68-.34-.01-.17-.61-.29-1.13-.36.4-.16.48-.25.47-.3-.03-.13-.78.04-1.48-.18a2.8 2.8 0 0 1-1.43-1.24c.04-.74.05-2.99-1.49-5.11a8.5 8.5 0 0 0-9.6-2.87 10 10 0 0 0-3.29 1.84 9.4 9.4 0 0 0-3.31 6.59q-.11 1.86.31 3.64c.61 2.47 1.88 4.1 2.65 5.07 1.16 1.47 2.27 2.34 3.34 3.18a28 28 0 0 0 5.83 3.48 13 13 0 0 0-2.2 5.46q-.09.22-.13.43-.91-.63-1.93-1.13a11.3 11.3 0 0 0-15.07 5.23 9.7 9.7 0 0 0-.07 7.74 9.4 9.4 0 0 0 4.31 4.45c.31.57.6 1.33.42 2.14-.18.83-.8 1.48-.68 1.59.04.04.17.01.58-.3-.23.56-.47 1.23-.3 1.34.15.1.56-.29.74-.48.95-1.08.38-3.1.1-3.94A7.3 7.3 0 0 0-47.45-9a7.4 7.4 0 0 0 4.23-3.77 6 6 0 0 0 .27-4.59 6 6 0 0 0-3.06-3.44c-2.48-1.21-6.24.53-6.57 2.28-.07.38-.01.9.27 1.31.3.44.95.93 1.49.71.44-.17.64-.73.65-1.15.01-.79-.65-1.07-.58-1.49.13-.75 2.5-1.56 4.3-.76 2.31 1.02 3.37 4.55 2.33 6.7a6.4 6.4 0 0 1-3.66 3.25 6.4 6.4 0 0 1-4.89-.28 8.13 8.13 0 0 1-3.77-10.85 10.24 10.24 0 0 1 13.73-4.77 13 13 0 0 1 6.6 7.42c1.09 3.14.95 6.5-.4 9.52q-.72-.15-1.47-.15A9.13 9.13 0 0 0-47.1.06c0 5.65 4.17 10.34 9.59 11.15a12 12 0 0 0-3.86 4.12 13.5 13.5 0 0 0-1.89 5.55l-.04.66c-.75 1.1-1.21 1.29-1.5 1.23-.25-.06-.43-.3-.65-.23-.19.07-.27.35-.31.57-.64-.5-1.24-.62-1.45-.4-.04.03-.14.16-.07.52-1.41-.35-1.75-.28-1.8-.16-.14.31 1.22 1.63 2.79 1.6 1.22-.02 2.37-.84 2.99-2.12l.03.6s.18 2.95 1.43 5.37a10.87 10.87 0 0 0 14.61 4.71 8.8 8.8 0 0 0 3.76-11.83 7.13 7.13 0 0 0-9.58-3.09c-2.64 1.36-3.58 5.15-2.48 7.81.73 1.77 2.64 3.58 4.53 3.38 1.18-.12 2.53-1.05 2.46-1.88-.04-.53-.65-1.15-1.28-1.11-.27.01-.65.16-.8.46-.22.45.23.88.03 1.22-.21.36-.95.28-1.08.27-1.28-.13-2.51-1.48-3.01-2.78-.83-2.16-.14-5.37 2.07-6.51a6.17 6.17 0 0 1 8.29 2.67 7.83 7.83 0 0 1-3.36 10.53 9.9 9.9 0 0 1-13.31-4.29 12.5 12.5 0 0 1 5.22-16.74 16 16 0 0 0 6.14-1.5c-.88 1.18-1.09 2.64-.53 3.78.72 1.47 2.58 2.09 2.8 1.82.09-.11-.01-.45-1-1.59.36-.1.43-.26.44-.31.1-.3-.29-.8-1.05-1.15.18-.14.4-.35.37-.56-.04-.24-.35-.29-.52-.5-.19-.24-.24-.75.43-1.97l.58-.35c.53-.35 2.57-1.72 4.22-4.39a13 13 0 0 0 1.96-5.45 11.4 11.4 0 0 0 4.9 4.82c.76.35 4.1 1.77 7.74.19A9.4 9.4 0 0 0-4.78-.05a3 3 0 0 1 2.16-.39c.82.19 1.46.83 1.57.71.04-.05.01-.18-.29-.59C-.79-.08-.11.17 0 0Z" style="fill:none;stroke:#000;stroke-opacity:1;stroke-width:.75;stroke-linecap:butt;stroke-linejoin:miter;stroke-miterlimit:10;stroke-dasharray:none" transform="translate(24.97 80.26)"/><path d="M0 0q-1.03 0-2.04.31a6.8 6.8 0 0 0-3.99 3.34 5.5 5.5 0 0 0-.38 4.22 5.5 5.5 0 0 0 2.72 3.25q.8.41 1.68.5a5 5 0 0 0 1.77-.2 5 5 0 0 0 1.62-.77c.49-.36.94-.7 1.11-1.3.04-.16.26-.9-.2-1.4-.31-.32-.9-.53-1.27-.27-.47.32-.3 1.15-.28 1.2.1.42.3.47.28.67-.06.66-2.45 1.54-4.25.68A4 4 0 0 1-4.6 9.12a5 5 0 0 1-.84-1.55 4.5 4.5 0 0 1 .3-3.46 5.8 5.8 0 0 1 3.41-2.84 5.8 5.8 0 0 1 4.42.4.5.5 0 0 0 .67-.22.5.5 0 0 0-.2-.67A7 7 0 0 0 0 0" style="fill:#000;fill-opacity:1;fill-rule:nonzero;stroke:none" transform="translate(4.43 22.72)"/><path d="M0 0q-1.03 0-2.04.31a6.8 6.8 0 0 0-3.99 3.34 5.5 5.5 0 0 0-.38 4.22 5.5 5.5 0 0 0 2.72 3.25q.8.41 1.68.5a5 5 0 0 0 1.77-.2 5 5 0 0 0 1.62-.77c.49-.36.94-.7 1.11-1.3.04-.16.26-.9-.2-1.4-.31-.32-.9-.53-1.27-.27-.47.32-.3 1.15-.28 1.2.1.42.3.47.28.67-.06.66-2.45 1.54-4.25.68A4 4 0 0 1-4.6 9.12a5 5 0 0 1-.84-1.55 4.5 4.5 0 0 1 .3-3.46 5.8 5.8 0 0 1 3.41-2.84 5.8 5.8 0 0 1 4.42.4.5.5 0 0 0 .67-.22.5.5 0 0 0-.2-.67A7 7 0 0 0 0 0Z" style="fill:none;stroke:#000;stroke-opacity:1;stroke-width:.75;stroke-linecap:butt;stroke-linejoin:miter;stroke-miterlimit:10;stroke-dasharray:none" transform="translate(4.43 22.72)"/><path d="M0 0c.1-.15-.28-.57-.48-.75-1.05-.96-3.09-.43-3.93-.16a7.4 7.4 0 0 0 .05-4.79 7.4 7.4 0 0 0-3.69-4.29 6 6 0 0 0-4.6-.34 6 6 0 0 0-3.48 3.01c-1.24 2.46.43 6.24 2.17 6.6.38.07.9.02 1.32-.25.45-.29.94-.94.74-1.48-.17-.45-.73-.65-1.15-.67-.79-.02-1.07.64-1.5.56-.74-.14-1.52-2.52-.69-4.31 1.06-2.3 4.6-3.3 6.74-2.23a6.4 6.4 0 0 1 3.19 3.71A6.4 6.4 0 0 1-5.67-.5a8.13 8.13 0 0 1-10.91 3.59 10.2 10.2 0 0 1-5.13-5.96c-.86-2.6-.65-5.39.58-7.84a13 13 0 0 1 7.52-6.48 13 13 0 0 1 9.9.74.5.5 0 0 0 .45-.9 14 14 0 0 0-10.66-.79 14 14 0 0 0-8.1 6.98 11 11 0 0 0-.73 8.29l-.11.23c0 7.16-5.81 12.98-12.97 12.98A10.3 10.3 0 0 1-46.1.06a8.13 8.13 0 0 1 8.12-8.12q.78 0 1.5.18l.24.07a6.4 6.4 0 0 1 4.66 6.14c0 2.59-2.64 4.76-5.02 5.02-1.44.16-3.27-.34-4-1.46-.07-.11-.49-.76-.26-1.13.22-.34.82-.13 1.13-.55.22-.29.17-.7.05-.96-.26-.6-1.12-.87-1.63-.66-.8.33-1.01 2.03-.57 3.18.72 1.85 3.29 2.75 5.28 2.58 2.97-.25 6.02-2.93 6.02-6.02 0-1.41-.4-2.73-1.11-3.86a5 5 0 0 0 3.24.08 5.7 5.7 0 0 0 3.41-2.82c.61-1.13.76-2.44.44-3.69a4.8 4.8 0 0 0-2.14-2.94q-.66-.4-1.37-.49c-.68-.09-1.2.04-1.48.11-.76.2-1.25.56-1.36.64-.42.3-.8.59-.96 1.12-.04.13-.24.78.12 1.23.25.29.72.48 1.04.27.4-.26.28-1 .27-1.05-.06-.37-.23-.42-.21-.59.07-.58 2.07-1.28 3.54-.48.6.33.98.85 1.11 1.02a4.2 4.2 0 0 1 .28 4.42 5 5 0 0 1-2.91 2.4 4.5 4.5 0 0 1-3.64-.48q-.19-.1-.36-.02a7 7 0 0 0-2.87-1.84c1.4-3.22 1.53-6.79.37-10.12a14 14 0 0 0-4.28-6.18q.15-.37.23-.93c2.27-7.72 9.33-11.91 15.05-10.49 4.9 1.21 9.25 6.66 8.31 11.93a8.13 8.13 0 0 1-9.43 6.56 6.4 6.4 0 0 1-5.17-7.42c.46-2.55 3.43-4.22 5.82-4.06 1.45.1 3.16.91 3.68 2.15.05.12.35.83.06 1.15s-.83-.01-1.21.35c-.26.24-.29.66-.22.93.15.64.95 1.06 1.49.94.85-.19 1.35-1.81 1.12-3.03-.38-1.94-2.75-3.28-4.74-3.47-2.96-.28-6.44 1.82-6.98 4.86a7.4 7.4 0 0 0 5.97 8.59 9.14 9.14 0 0 0 10.59-7.37 11.3 11.3 0 0 0-9.11-13.09c-2.78-.5-5.76.22-5.76.22l-.61.15c1.08-1 1.55-2.4 1.2-3.62-.46-1.57-2.17-2.51-2.44-2.28-.11.09-.07.45.7 1.74-.37.03-.47.18-.49.23-.15.28.15.83.84 1.32-.21.1-.46.27-.47.48 0 .24.3.35.42.58.15.27.11.79-.76 1.87l-.64.24c-.58.25-2.83 1.24-4.93 3.58q-.2.21-.45.51c-.55-.34-1.47-.75-1.75-.88 0 0-1.82-.84-3.99-2.38-.74-.51-2.1-1.49-3.41-3.14-.71-.89-1.9-2.41-2.46-4.72a12 12 0 0 1-.29-3.38 8.6 8.6 0 0 1 3.01-6 8.8 8.8 0 0 1 6.43-2.07 7.1 7.1 0 0 1 6.53 7.49 5.3 5.3 0 0 1-1.87 3.73 5.5 5.5 0 0 1-4.01 1.3c-2.05-.17-4.25-2.48-4.03-4.63.17-1.68 1.79-3.07 2.41-2.85.35.13.27.74.87 1.08.32.17.82.27 1.14.02.4-.31.31-1 .11-1.41-.2-.39-.56-.66-.87-.77-1.46-.52-4.36 1.51-4.52 3.86a5.2 5.2 0 0 0 1.27 3.75 5.3 5.3 0 0 0 3.57 1.8c1.7.13 3.34-.4 4.62-1.49a6.2 6.2 0 0 0 2.07-3.53c.5.57 1.78 1.86 2.99 1.63.23-.04.68-.19.68-.34-.01-.17-.61-.29-1.13-.36.4-.16.48-.25.47-.3-.03-.13-.78.04-1.48-.18a2.8 2.8 0 0 1-1.43-1.24c.04-.74.05-2.99-1.49-5.11a8.5 8.5 0 0 0-9.6-2.87 10 10 0 0 0-3.29 1.84 9.4 9.4 0 0 0-3.31 6.59q-.11 1.86.31 3.64c.61 2.47 1.88 4.1 2.65 5.07 1.16 1.47 2.27 2.34 3.34 3.18a28 28 0 0 0 5.83 3.48 13 13 0 0 0-2.2 5.46q-.09.22-.13.43-.91-.63-1.93-1.13a11.3 11.3 0 0 0-15.07 5.23 9.7 9.7 0 0 0-.07 7.74 9.4 9.4 0 0 0 4.31 4.45c.31.57.6 1.33.42 2.14-.18.83-.8 1.48-.68 1.59.04.04.17.01.58-.3-.23.56-.47 1.23-.3 1.34.15.1.56-.29.74-.48.95-1.08.38-3.1.1-3.94A7.3 7.3 0 0 0-47.45-9a7.4 7.4 0 0 0 4.23-3.77 6 6 0 0 0 .27-4.59 6 6 0 0 0-3.06-3.44c-2.48-1.21-6.24.53-6.57 2.28-.07.38-.01.9.27 1.31.3.44.95.93 1.49.71.44-.17.64-.73.65-1.15.01-.79-.65-1.07-.58-1.49.13-.75 2.5-1.56 4.3-.76 2.31 1.02 3.37 4.55 2.33 6.7a6.4 6.4 0 0 1-3.66 3.25 6.4 6.4 0 0 1-4.89-.28 8.13 8.13 0 0 1-3.77-10.85 10.24 10.24 0 0 1 13.73-4.77 13 13 0 0 1 6.6 7.42c1.09 3.14.95 6.5-.4 9.52q-.72-.15-1.47-.15A9.13 9.13 0 0 0-47.1.06c0 5.65 4.17 10.34 9.59 11.15a12 12 0 0 0-3.86 4.12 13.5 13.5 0 0 0-1.89 5.55l-.04.66c-.75 1.1-1.21 1.29-1.5 1.23-.25-.06-.43-.3-.65-.23-.19.07-.27.35-.31.57-.64-.5-1.24-.62-1.45-.4-.04.03-.14.16-.07.52-1.41-.35-1.75-.28-1.8-.16-.14.31 1.22 1.63 2.79 1.6 1.22-.02 2.37-.84 2.99-2.12l.03.6s.18 2.95 1.43 5.37a10.87 10.87 0 0 0 14.61 4.71 8.8 8.8 0 0 0 3.76-11.83 7.13 7.13 0 0 0-9.58-3.09c-2.64 1.36-3.58 5.15-2.48 7.81.73 1.77 2.64 3.58 4.53 3.38 1.18-.12 2.53-1.05 2.46-1.88-.04-.53-.65-1.15-1.28-1.11-.27.01-.65.16-.8.46-.22.45.23.88.03 1.22-.21.36-.95.28-1.08.27-1.28-.13-2.51-1.48-3.01-2.78-.83-2.16-.14-5.37 2.07-6.51a6.17 6.17 0 0 1 8.29 2.67 7.83 7.83 0 0 1-3.36 10.53 9.9 9.9 0 0 1-13.31-4.29 12.5 12.5 0 0 1 5.22-16.74 16 16 0 0 0 6.14-1.5c-.88 1.18-1.09 2.64-.53 3.78.72 1.47 2.58 2.09 2.8 1.82.09-.11-.01-.45-1-1.59.36-.1.43-.26.44-.31.1-.3-.29-.8-1.05-1.15.18-.14.4-.35.37-.56-.04-.24-.35-.29-.52-.5-.19-.24-.24-.75.43-1.97l.58-.35c.53-.35 2.57-1.72 4.22-4.39a13 13 0 0 0 1.96-5.45 11.4 11.4 0 0 0 4.9 4.82c.76.35 4.1 1.77 7.74.19A9.4 9.4 0 0 0-4.78-.05a3 3 0 0 1 2.16-.39c.82.19 1.46.83 1.57.71.04-.05.01-.18-.29-.59C-.79-.08-.11.17 0 0" style="fill:#000;fill-opacity:1;fill-rule:nonzero;stroke:none" transform="translate(159.97 143.26)"/><path d="M0 0c.1-.15-.28-.57-.48-.75-1.05-.96-3.09-.43-3.93-.16a7.4 7.4 0 0 0 .05-4.79 7.4 7.4 0 0 0-3.69-4.29 6 6 0 0 0-4.6-.34 6 6 0 0 0-3.48 3.01c-1.24 2.46.43 6.24 2.17 6.6.38.07.9.02 1.32-.25.45-.29.94-.94.74-1.48-.17-.45-.73-.65-1.15-.67-.79-.02-1.07.64-1.5.56-.74-.14-1.52-2.52-.69-4.31 1.06-2.3 4.6-3.3 6.74-2.23a6.4 6.4 0 0 1 3.19 3.71A6.4 6.4 0 0 1-5.67-.5a8.13 8.13 0 0 1-10.91 3.59 10.2 10.2 0 0 1-5.13-5.96c-.86-2.6-.65-5.39.58-7.84a13 13 0 0 1 7.52-6.48 13 13 0 0 1 9.9.74.5.5 0 0 0 .45-.9 14 14 0 0 0-10.66-.79 14 14 0 0 0-8.1 6.98 11 11 0 0 0-.73 8.29l-.11.23c0 7.16-5.81 12.98-12.97 12.98A10.3 10.3 0 0 1-46.1.06a8.13 8.13 0 0 1 8.12-8.12q.78 0 1.5.18l.24.07a6.4 6.4 0 0 1 4.66 6.14c0 2.59-2.64 4.76-5.02 5.02-1.44.16-3.27-.34-4-1.46-.07-.11-.49-.76-.26-1.13.22-.34.82-.13 1.13-.55.22-.29.17-.7.05-.96-.26-.6-1.12-.87-1.63-.66-.8.33-1.01 2.03-.57 3.18.72 1.85 3.29 2.75 5.28 2.58 2.97-.25 6.02-2.93 6.02-6.02 0-1.41-.4-2.73-1.11-3.86a5 5 0 0 0 3.24.08 5.7 5.7 0 0 0 3.41-2.82c.61-1.13.76-2.44.44-3.69a4.8 4.8 0 0 0-2.14-2.94q-.66-.4-1.37-.49c-.68-.09-1.2.04-1.48.11-.76.2-1.25.56-1.36.64-.42.3-.8.59-.96 1.12-.04.13-.24.78.12 1.23.25.29.72.48 1.04.27.4-.26.28-1 .27-1.05-.06-.37-.23-.42-.21-.59.07-.58 2.07-1.28 3.54-.48.6.33.98.85 1.11 1.02a4.2 4.2 0 0 1 .28 4.42 5 5 0 0 1-2.91 2.4 4.5 4.5 0 0 1-3.64-.48q-.19-.1-.36-.02a7 7 0 0 0-2.87-1.84c1.4-3.22 1.53-6.79.37-10.12a14 14 0 0 0-4.28-6.18q.15-.37.23-.93c2.27-7.72 9.33-11.91 15.05-10.49 4.9 1.21 9.25 6.66 8.31 11.93a8.13 8.13 0 0 1-9.43 6.56 6.4 6.4 0 0 1-5.17-7.42c.46-2.55 3.43-4.22 5.82-4.06 1.45.1 3.16.91 3.68 2.15.05.12.35.83.06 1.15s-.83-.01-1.21.35c-.26.24-.29.66-.22.93.15.64.95 1.06 1.49.94.85-.19 1.35-1.81 1.12-3.03-.38-1.94-2.75-3.28-4.74-3.47-2.96-.28-6.44 1.82-6.98 4.86a7.4 7.4 0 0 0 5.97 8.59 9.14 9.14 0 0 0 10.59-7.37 11.3 11.3 0 0 0-9.11-13.09c-2.78-.5-5.76.22-5.76.22l-.61.15c1.08-1 1.55-2.4 1.2-3.62-.46-1.57-2.17-2.51-2.44-2.28-.11.09-.07.45.7 1.74-.37.03-.47.18-.49.23-.15.28.15.83.84 1.32-.21.1-.46.27-.47.48 0 .24.3.35.42.58.15.27.11.79-.76 1.87l-.64.24c-.58.25-2.83 1.24-4.93 3.58q-.2.21-.45.51c-.55-.34-1.47-.75-1.75-.88 0 0-1.82-.84-3.99-2.38-.74-.51-2.1-1.49-3.41-3.14-.71-.89-1.9-2.41-2.46-4.72a12 12 0 0 1-.29-3.38 8.6 8.6 0 0 1 3.01-6 8.8 8.8 0 0 1 6.43-2.07 7.1 7.1 0 0 1 6.53 7.49 5.3 5.3 0 0 1-1.87 3.73 5.5 5.5 0 0 1-4.01 1.3c-2.05-.17-4.25-2.48-4.03-4.63.17-1.68 1.79-3.07 2.41-2.85.35.13.27.74.87 1.08.32.17.82.27 1.14.02.4-.31.31-1 .11-1.41-.2-.39-.56-.66-.87-.77-1.46-.52-4.36 1.51-4.52 3.86a5.2 5.2 0 0 0 1.27 3.75 5.3 5.3 0 0 0 3.57 1.8c1.7.13 3.34-.4 4.62-1.49a6.2 6.2 0 0 0 2.07-3.53c.5.57 1.78 1.86 2.99 1.63.23-.04.68-.19.68-.34-.01-.17-.61-.29-1.13-.36.4-.16.48-.25.47-.3-.03-.13-.78.04-1.48-.18a2.8 2.8 0 0 1-1.43-1.24c.04-.74.05-2.99-1.49-5.11a8.5 8.5 0 0 0-9.6-2.87 10 10 0 0 0-3.29 1.84 9.4 9.4 0 0 0-3.31 6.59q-.11 1.86.31 3.64c.61 2.47 1.88 4.1 2.65 5.07 1.16 1.47 2.27 2.34 3.34 3.18a28 28 0 0 0 5.83 3.48 13 13 0 0 0-2.2 5.46q-.09.22-.13.43-.91-.63-1.93-1.13a11.3 11.3 0 0 0-15.07 5.23 9.7 9.7 0 0 0-.07 7.74 9.4 9.4 0 0 0 4.31 4.45c.31.57.6 1.33.42 2.14-.18.83-.8 1.48-.68 1.59.04.04.17.01.58-.3-.23.56-.47 1.23-.3 1.34.15.1.56-.29.74-.48.95-1.08.38-3.1.1-3.94A7.3 7.3 0 0 0-47.45-9a7.4 7.4 0 0 0 4.23-3.77 6 6 0 0 0 .27-4.59 6 6 0 0 0-3.06-3.44c-2.48-1.21-6.24.53-6.57 2.28-.07.38-.01.9.27 1.31.3.44.95.93 1.49.71.44-.17.64-.73.65-1.15.01-.79-.65-1.07-.58-1.49.13-.75 2.5-1.56 4.3-.76 2.31 1.02 3.37 4.55 2.33 6.7a6.4 6.4 0 0 1-3.66 3.25 6.4 6.4 0 0 1-4.89-.28 8.13 8.13 0 0 1-3.77-10.85 10.24 10.24 0 0 1 13.73-4.77 13 13 0 0 1 6.6 7.42c1.09 3.14.95 6.5-.4 9.52q-.72-.15-1.47-.15A9.13 9.13 0 0 0-47.1.06c0 5.65 4.17 10.34 9.59 11.15a12 12 0 0 0-3.86 4.12 13.5 13.5 0 0 0-1.89 5.55l-.04.66c-.75 1.1-1.21 1.29-1.5 1.23-.25-.06-.43-.3-.65-.23-.19.07-.27.35-.31.57-.64-.5-1.24-.62-1.45-.4-.04.03-.14.16-.07.52-1.41-.35-1.75-.28-1.8-.16-.14.31 1.22 1.63 2.79 1.6 1.22-.02 2.37-.84 2.99-2.12l.03.6s.18 2.95 1.43 5.37a10.87 10.87 0 0 0 14.61 4.71 8.8 8.8 0 0 0 3.76-11.83 7.13 7.13 0 0 0-9.58-3.09c-2.64 1.36-3.58 5.15-2.48 7.81.73 1.77 2.64 3.58 4.53 3.38 1.18-.12 2.53-1.05 2.46-1.88-.04-.53-.65-1.15-1.28-1.11-.27.01-.65.16-.8.46-.22.45.23.88.03 1.22-.21.36-.95.28-1.08.27-1.28-.13-2.51-1.48-3.01-2.78-.83-2.16-.14-5.37 2.07-6.51a6.17 6.17 0 0 1 8.29 2.67 7.83 7.83 0 0 1-3.36 10.53 9.9 9.9 0 0 1-13.31-4.29 12.5 12.5 0 0 1 5.22-16.74 16 16 0 0 0 6.14-1.5c-.88 1.18-1.09 2.64-.53 3.78.72 1.47 2.58 2.09 2.8 1.82.09-.11-.01-.45-1-1.59.36-.1.43-.26.44-.31.1-.3-.29-.8-1.05-1.15.18-.14.4-.35.37-.56-.04-.24-.35-.29-.52-.5-.19-.24-.24-.75.43-1.97l.58-.35c.53-.35 2.57-1.72 4.22-4.39a13 13 0 0 0 1.96-5.45 11.4 11.4 0 0 0 4.9 4.82c.76.35 4.1 1.77 7.74.19A9.4 9.4 0 0 0-4.78-.05a3 3 0 0 1 2.16-.39c.82.19 1.46.83 1.57.71.04-.05.01-.18-.29-.59C-.79-.08-.11.17 0 0Z" style="fill:none;stroke:#000;stroke-opacity:1;stroke-width:.75;stroke-linecap:butt;stroke-linejoin:miter;stroke-miterlimit:10;stroke-dasharray:none" transform="translate(159.97 143.26)"/><path d="M0 0c.1-.15-.28-.57-.48-.75-1.05-.96-3.09-.43-3.93-.16a7.4 7.4 0 0 0 .05-4.79 7.4 7.4 0 0 0-3.69-4.29 6 6 0 0 0-4.6-.34 6 6 0 0 0-3.48 3.01c-1.24 2.46.43 6.24 2.17 6.6.38.07.9.02 1.32-.25.45-.29.94-.94.74-1.48-.17-.45-.73-.65-1.15-.67-.79-.02-1.07.64-1.5.56-.74-.14-1.52-2.52-.69-4.31 1.06-2.3 4.6-3.3 6.74-2.23a6.4 6.4 0 0 1 3.19 3.71A6.4 6.4 0 0 1-5.67-.5a8.13 8.13 0 0 1-10.91 3.59 10.2 10.2 0 0 1-5.13-5.96c-.86-2.6-.65-5.39.58-7.84a13 13 0 0 1 7.52-6.48 13 13 0 0 1 9.9.74.5.5 0 0 0 .45-.9 14 14 0 0 0-10.66-.79 14 14 0 0 0-8.1 6.98 11 11 0 0 0-.73 8.29l-.11.23c0 7.16-5.81 12.98-12.97 12.98A10.3 10.3 0 0 1-46.1.06a8.13 8.13 0 0 1 8.12-8.12q.78 0 1.5.18l.24.07a6.4 6.4 0 0 1 4.66 6.14c0 2.59-2.64 4.76-5.02 5.02-1.44.16-3.27-.34-4-1.46-.07-.11-.49-.76-.26-1.13.22-.34.82-.13 1.13-.55.22-.29.17-.7.05-.96-.26-.6-1.12-.87-1.63-.66-.8.33-1.01 2.03-.57 3.18.72 1.85 3.29 2.75 5.28 2.58 2.97-.25 6.02-2.93 6.02-6.02 0-1.41-.4-2.73-1.11-3.86a5 5 0 0 0 3.24.08 5.7 5.7 0 0 0 3.41-2.82c.61-1.13.76-2.44.44-3.69a4.8 4.8 0 0 0-2.14-2.94q-.66-.4-1.37-.49c-.68-.09-1.2.04-1.48.11-.76.2-1.25.56-1.36.64-.42.3-.8.59-.96 1.12-.04.13-.24.78.12 1.23.25.29.72.48 1.04.27.4-.26.28-1 .27-1.05-.06-.37-.23-.42-.21-.59.07-.58 2.07-1.28 3.54-.48.6.33.98.85 1.11 1.02a4.2 4.2 0 0 1 .28 4.42 5 5 0 0 1-2.91 2.4 4.5 4.5 0 0 1-3.64-.48q-.19-.1-.36-.02a7 7 0 0 0-2.87-1.84c1.4-3.22 1.53-6.79.37-10.12a14 14 0 0 0-4.28-6.18q.15-.37.23-.93c2.27-7.72 9.33-11.91 15.05-10.49 4.9 1.21 9.25 6.66 8.31 11.93a8.13 8.13 0 0 1-9.43 6.56 6.4 6.4 0 0 1-5.17-7.42c.46-2.55 3.43-4.22 5.82-4.06 1.45.1 3.16.91 3.68 2.15.05.12.35.83.06 1.15s-.83-.01-1.21.35c-.26.24-.29.66-.22.93.15.64.95 1.06 1.49.94.85-.19 1.35-1.81 1.12-3.03-.38-1.94-2.75-3.28-4.74-3.47-2.96-.28-6.44 1.82-6.98 4.86a7.4 7.4 0 0 0 5.97 8.59 9.14 9.14 0 0 0 10.59-7.37 11.3 11.3 0 0 0-9.11-13.09c-2.78-.5-5.76.22-5.76.22l-.61.15c1.08-1 1.55-2.4 1.2-3.62-.46-1.57-2.17-2.51-2.44-2.28-.11.09-.07.45.7 1.74-.37.03-.47.18-.49.23-.15.28.15.83.84 1.32-.21.1-.46.27-.47.48 0 .24.3.35.42.58.15.27.11.79-.76 1.87l-.64.24c-.58.25-2.83 1.24-4.93 3.58q-.2.21-.45.51c-.55-.34-1.47-.75-1.75-.88 0 0-1.82-.84-3.99-2.38-.74-.51-2.1-1.49-3.41-3.14-.71-.89-1.9-2.41-2.46-4.72a12 12 0 0 1-.29-3.38 8.6 8.6 0 0 1 3.01-6 8.8 8.8 0 0 1 6.43-2.07 7.1 7.1 0 0 1 6.53 7.49 5.3 5.3 0 0 1-1.87 3.73 5.5 5.5 0 0 1-4.01 1.3c-2.05-.17-4.25-2.48-4.03-4.63.17-1.68 1.79-3.07 2.41-2.85.35.13.27.74.87 1.08.32.17.82.27 1.14.02.4-.31.31-1 .11-1.41-.2-.39-.56-.66-.87-.77-1.46-.52-4.36 1.51-4.52 3.86a5.2 5.2 0 0 0 1.27 3.75 5.3 5.3 0 0 0 3.57 1.8c1.7.13 3.34-.4 4.62-1.49a6.2 6.2 0 0 0 2.07-3.53c.5.57 1.78 1.86 2.99 1.63.23-.04.68-.19.68-.34-.01-.17-.61-.29-1.13-.36.4-.16.48-.25.47-.3-.03-.13-.78.04-1.48-.18a2.8 2.8 0 0 1-1.43-1.24c.04-.74.05-2.99-1.49-5.11a8.5 8.5 0 0 0-9.6-2.87 10 10 0 0 0-3.29 1.84 9.4 9.4 0 0 0-3.31 6.59q-.11 1.86.31 3.64c.61 2.47 1.88 4.1 2.65 5.07 1.16 1.47 2.27 2.34 3.34 3.18a28 28 0 0 0 5.83 3.48 13 13 0 0 0-2.2 5.46q-.09.22-.13.43-.91-.63-1.93-1.13a11.3 11.3 0 0 0-15.07 5.23 9.7 9.7 0 0 0-.07 7.74 9.4 9.4 0 0 0 4.31 4.45c.31.57.6 1.33.42 2.14-.18.83-.8 1.48-.68 1.59.04.04.17.01.58-.3-.23.56-.47 1.23-.3 1.34.15.1.56-.29.74-.48.95-1.08.38-3.1.1-3.94A7.3 7.3 0 0 0-47.45-9a7.4 7.4 0 0 0 4.23-3.77 6 6 0 0 0 .27-4.59 6 6 0 0 0-3.06-3.44c-2.48-1.21-6.24.53-6.57 2.28-.07.38-.01.9.27 1.31.3.44.95.93 1.49.71.44-.17.64-.73.65-1.15.01-.79-.65-1.07-.58-1.49.13-.75 2.5-1.56 4.3-.76 2.31 1.02 3.37 4.55 2.33 6.7a6.4 6.4 0 0 1-3.66 3.25 6.4 6.4 0 0 1-4.89-.28 8.13 8.13 0 0 1-3.77-10.85 10.24 10.24 0 0 1 13.73-4.77 13 13 0 0 1 6.6 7.42c1.09 3.14.95 6.5-.4 9.52q-.72-.15-1.47-.15A9.13 9.13 0 0 0-47.1.06c0 5.65 4.17 10.34 9.59 11.15a12 12 0 0 0-3.86 4.12 13.5 13.5 0 0 0-1.89 5.55l-.04.66c-.75 1.1-1.21 1.29-1.5 1.23-.25-.06-.43-.3-.65-.23-.19.07-.27.35-.31.57-.64-.5-1.24-.62-1.45-.4-.04.03-.14.16-.07.52-1.41-.35-1.75-.28-1.8-.16-.14.31 1.22 1.63 2.79 1.6 1.22-.02 2.37-.84 2.99-2.12l.03.6s.18 2.95 1.43 5.37a10.87 10.87 0 0 0 14.61 4.71 8.8 8.8 0 0 0 3.76-11.83 7.13 7.13 0 0 0-9.58-3.09c-2.64 1.36-3.58 5.15-2.48 7.81.73 1.77 2.64 3.58 4.53 3.38 1.18-.12 2.53-1.05 2.46-1.88-.04-.53-.65-1.15-1.28-1.11-.27.01-.65.16-.8.46-.22.45.23.88.03 1.22-.21.36-.95.28-1.08.27-1.28-.13-2.51-1.48-3.01-2.78-.83-2.16-.14-5.37 2.07-6.51a6.17 6.17 0 0 1 8.29 2.67 7.83 7.83 0 0 1-3.36 10.53 9.9 9.9 0 0 1-13.31-4.29 12.5 12.5 0 0 1 5.22-16.74 16 16 0 0 0 6.14-1.5c-.88 1.18-1.09 2.64-.53 3.78.72 1.47 2.58 2.09 2.8 1.82.09-.11-.01-.45-1-1.59.36-.1.43-.26.44-.31.1-.3-.29-.8-1.05-1.15.18-.14.4-.35.37-.56-.04-.24-.35-.29-.52-.5-.19-.24-.24-.75.43-1.97l.58-.35c.53-.35 2.57-1.72 4.22-4.39a13 13 0 0 0 1.96-5.45 11.4 11.4 0 0 0 4.9 4.82c.76.35 4.1 1.77 7.74.19A9.4 9.4 0 0 0-4.78-.05a3 3 0 0 1 2.16-.39c.82.19 1.46.83 1.57.71.04-.05.01-.18-.29-.59C-.79-.08-.11.17 0 0" style="fill:#000;fill-opacity:1;fill-rule:nonzero;stroke:none" transform="translate(105.97 143.26)"/><path d="M0 0c.1-.15-.28-.57-.48-.75-1.05-.96-3.09-.43-3.93-.16a7.4 7.4 0 0 0 .05-4.79 7.4 7.4 0 0 0-3.69-4.29 6 6 0 0 0-4.6-.34 6 6 0 0 0-3.48 3.01c-1.24 2.46.43 6.24 2.17 6.6.38.07.9.02 1.32-.25.45-.29.94-.94.74-1.48-.17-.45-.73-.65-1.15-.67-.79-.02-1.07.64-1.5.56-.74-.14-1.52-2.52-.69-4.31 1.06-2.3 4.6-3.3 6.74-2.23a6.4 6.4 0 0 1 3.19 3.71A6.4 6.4 0 0 1-5.67-.5a8.13 8.13 0 0 1-10.91 3.59 10.2 10.2 0 0 1-5.13-5.96c-.86-2.6-.65-5.39.58-7.84a13 13 0 0 1 7.52-6.48 13 13 0 0 1 9.9.74.5.5 0 0 0 .45-.9 14 14 0 0 0-10.66-.79 14 14 0 0 0-8.1 6.98 11 11 0 0 0-.73 8.29l-.11.23c0 7.16-5.81 12.98-12.97 12.98A10.3 10.3 0 0 1-46.1.06a8.13 8.13 0 0 1 8.12-8.12q.78 0 1.5.18l.24.07a6.4 6.4 0 0 1 4.66 6.14c0 2.59-2.64 4.76-5.02 5.02-1.44.16-3.27-.34-4-1.46-.07-.11-.49-.76-.26-1.13.22-.34.82-.13 1.13-.55.22-.29.17-.7.05-.96-.26-.6-1.12-.87-1.63-.66-.8.33-1.01 2.03-.57 3.18.72 1.85 3.29 2.75 5.28 2.58 2.97-.25 6.02-2.93 6.02-6.02 0-1.41-.4-2.73-1.11-3.86a5 5 0 0 0 3.24.08 5.7 5.7 0 0 0 3.41-2.82c.61-1.13.76-2.44.44-3.69a4.8 4.8 0 0 0-2.14-2.94q-.66-.4-1.37-.49c-.68-.09-1.2.04-1.48.11-.76.2-1.25.56-1.36.64-.42.3-.8.59-.96 1.12-.04.13-.24.78.12 1.23.25.29.72.48 1.04.27.4-.26.28-1 .27-1.05-.06-.37-.23-.42-.21-.59.07-.58 2.07-1.28 3.54-.48.6.33.98.85 1.11 1.02a4.2 4.2 0 0 1 .28 4.42 5 5 0 0 1-2.91 2.4 4.5 4.5 0 0 1-3.64-.48q-.19-.1-.36-.02a7 7 0 0 0-2.87-1.84c1.4-3.22 1.53-6.79.37-10.12a14 14 0 0 0-4.28-6.18q.15-.37.23-.93c2.27-7.72 9.33-11.91 15.05-10.49 4.9 1.21 9.25 6.66 8.31 11.93a8.13 8.13 0 0 1-9.43 6.56 6.4 6.4 0 0 1-5.17-7.42c.46-2.55 3.43-4.22 5.82-4.06 1.45.1 3.16.91 3.68 2.15.05.12.35.83.06 1.15s-.83-.01-1.21.35c-.26.24-.29.66-.22.93.15.64.95 1.06 1.49.94.85-.19 1.35-1.81 1.12-3.03-.38-1.94-2.75-3.28-4.74-3.47-2.96-.28-6.44 1.82-6.98 4.86a7.4 7.4 0 0 0 5.97 8.59 9.14 9.14 0 0 0 10.59-7.37 11.3 11.3 0 0 0-9.11-13.09c-2.78-.5-5.76.22-5.76.22l-.61.15c1.08-1 1.55-2.4 1.2-3.62-.46-1.57-2.17-2.51-2.44-2.28-.11.09-.07.45.7 1.74-.37.03-.47.18-.49.23-.15.28.15.83.84 1.32-.21.1-.46.27-.47.48 0 .24.3.35.42.58.15.27.11.79-.76 1.87l-.64.24c-.58.25-2.83 1.24-4.93 3.58q-.2.21-.45.51c-.55-.34-1.47-.75-1.75-.88 0 0-1.82-.84-3.99-2.38-.74-.51-2.1-1.49-3.41-3.14-.71-.89-1.9-2.41-2.46-4.72a12 12 0 0 1-.29-3.38 8.6 8.6 0 0 1 3.01-6 8.8 8.8 0 0 1 6.43-2.07 7.1 7.1 0 0 1 6.53 7.49 5.3 5.3 0 0 1-1.87 3.73 5.5 5.5 0 0 1-4.01 1.3c-2.05-.17-4.25-2.48-4.03-4.63.17-1.68 1.79-3.07 2.41-2.85.35.13.27.74.87 1.08.32.17.82.27 1.14.02.4-.31.31-1 .11-1.41-.2-.39-.56-.66-.87-.77-1.46-.52-4.36 1.51-4.52 3.86a5.2 5.2 0 0 0 1.27 3.75 5.3 5.3 0 0 0 3.57 1.8c1.7.13 3.34-.4 4.62-1.49a6.2 6.2 0 0 0 2.07-3.53c.5.57 1.78 1.86 2.99 1.63.23-.04.68-.19.68-.34-.01-.17-.61-.29-1.13-.36.4-.16.48-.25.47-.3-.03-.13-.78.04-1.48-.18a2.8 2.8 0 0 1-1.43-1.24c.04-.74.05-2.99-1.49-5.11a8.5 8.5 0 0 0-9.6-2.87 10 10 0 0 0-3.29 1.84 9.4 9.4 0 0 0-3.31 6.59q-.11 1.86.31 3.64c.61 2.47 1.88 4.1 2.65 5.07 1.16 1.47 2.27 2.34 3.34 3.18a28 28 0 0 0 5.83 3.48 13 13 0 0 0-2.2 5.46q-.09.22-.13.43-.91-.63-1.93-1.13a11.3 11.3 0 0 0-15.07 5.23 9.7 9.7 0 0 0-.07 7.74 9.4 9.4 0 0 0 4.31 4.45c.31.57.6 1.33.42 2.14-.18.83-.8 1.48-.68 1.59.04.04.17.01.58-.3-.23.56-.47 1.23-.3 1.34.15.1.56-.29.74-.48.95-1.08.38-3.1.1-3.94A7.3 7.3 0 0 0-47.45-9a7.4 7.4 0 0 0 4.23-3.77 6 6 0 0 0 .27-4.59 6 6 0 0 0-3.06-3.44c-2.48-1.21-6.24.53-6.57 2.28-.07.38-.01.9.27 1.31.3.44.95.93 1.49.71.44-.17.64-.73.65-1.15.01-.79-.65-1.07-.58-1.49.13-.75 2.5-1.56 4.3-.76 2.31 1.02 3.37 4.55 2.33 6.7a6.4 6.4 0 0 1-3.66 3.25 6.4 6.4 0 0 1-4.89-.28 8.13 8.13 0 0 1-3.77-10.85 10.24 10.24 0 0 1 13.73-4.77 13 13 0 0 1 6.6 7.42c1.09 3.14.95 6.5-.4 9.52q-.72-.15-1.47-.15A9.13 9.13 0 0 0-47.1.06c0 5.65 4.17 10.34 9.59 11.15a12 12 0 0 0-3.86 4.12 13.5 13.5 0 0 0-1.89 5.55l-.04.66c-.75 1.1-1.21 1.29-1.5 1.23-.25-.06-.43-.3-.65-.23-.19.07-.27.35-.31.57-.64-.5-1.24-.62-1.45-.4-.04.03-.14.16-.07.52-1.41-.35-1.75-.28-1.8-.16-.14.31 1.22 1.63 2.79 1.6 1.22-.02 2.37-.84 2.99-2.12l.03.6s.18 2.95 1.43 5.37a10.87 10.87 0 0 0 14.61 4.71 8.8 8.8 0 0 0 3.76-11.83 7.13 7.13 0 0 0-9.58-3.09c-2.64 1.36-3.58 5.15-2.48 7.81.73 1.77 2.64 3.58 4.53 3.38 1.18-.12 2.53-1.05 2.46-1.88-.04-.53-.65-1.15-1.28-1.11-.27.01-.65.16-.8.46-.22.45.23.88.03 1.22-.21.36-.95.28-1.08.27-1.28-.13-2.51-1.48-3.01-2.78-.83-2.16-.14-5.37 2.07-6.51a6.17 6.17 0 0 1 8.29 2.67 7.83 7.83 0 0 1-3.36 10.53 9.9 9.9 0 0 1-13.31-4.29 12.5 12.5 0 0 1 5.22-16.74 16 16 0 0 0 6.14-1.5c-.88 1.18-1.09 2.64-.53 3.78.72 1.47 2.58 2.09 2.8 1.82.09-.11-.01-.45-1-1.59.36-.1.43-.26.44-.31.1-.3-.29-.8-1.05-1.15.18-.14.4-.35.37-.56-.04-.24-.35-.29-.52-.5-.19-.24-.24-.75.43-1.97l.58-.35c.53-.35 2.57-1.72 4.22-4.39a13 13 0 0 0 1.96-5.45 11.4 11.4 0 0 0 4.9 4.82c.76.35 4.1 1.77 7.74.19A9.4 9.4 0 0 0-4.78-.05a3 3 0 0 1 2.16-.39c.82.19 1.46.83 1.57.71.04-.05.01-.18-.29-.59C-.79-.08-.11.17 0 0Z" style="fill:none;stroke:#000;stroke-opacity:1;stroke-width:.75;stroke-linecap:butt;stroke-linejoin:miter;stroke-miterlimit:10;stroke-dasharray:none" transform="translate(105.97 143.26)"/><path d="M0 0q-1.03 0-2.04.31a6.8 6.8 0 0 0-3.99 3.34 5.5 5.5 0 0 0-.38 4.22 5.5 5.5 0 0 0 2.72 3.25q.8.41 1.68.5a5 5 0 0 0 1.77-.2 5 5 0 0 0 1.62-.77c.49-.36.94-.7 1.11-1.3.04-.16.26-.9-.2-1.4-.31-.32-.9-.53-1.27-.27-.47.32-.3 1.15-.28 1.2.1.42.3.47.28.67-.06.66-2.45 1.54-4.25.68A4 4 0 0 1-4.6 9.12a5 5 0 0 1-.84-1.55 4.5 4.5 0 0 1 .3-3.46 5.8 5.8 0 0 1 3.41-2.84 5.8 5.8 0 0 1 4.42.4.5.5 0 0 0 .67-.22.5.5 0 0 0-.2-.67A7 7 0 0 0 0 0" style="fill:#000;fill-opacity:1;fill-rule:nonzero;stroke:none" transform="translate(85.43 85.72)"/><path d="M0 0q-1.03 0-2.04.31a6.8 6.8 0 0 0-3.99 3.34 5.5 5.5 0 0 0-.38 4.22 5.5 5.5 0 0 0 2.72 3.25q.8.41 1.68.5a5 5 0 0 0 1.77-.2 5 5 0 0 0 1.62-.77c.49-.36.94-.7 1.11-1.3.04-.16.26-.9-.2-1.4-.31-.32-.9-.53-1.27-.27-.47.32-.3 1.15-.28 1.2.1.42.3.47.28.67-.06.66-2.45 1.54-4.25.68A4 4 0 0 1-4.6 9.12a5 5 0 0 1-.84-1.55 4.5 4.5 0 0 1 .3-3.46 5.8 5.8 0 0 1 3.41-2.84 5.8 5.8 0 0 1 4.42.4.5.5 0 0 0 .67-.22.5.5 0 0 0-.2-.67A7 7 0 0 0 0 0Z" style="fill:none;stroke:#000;stroke-opacity:1;stroke-width:.75;stroke-linecap:butt;stroke-linejoin:miter;stroke-miterlimit:10;stroke-dasharray:none" transform="translate(85.43 85.72)"/><path d="M0 0c.1-.15-.28-.57-.48-.75-1.05-.96-3.09-.43-3.93-.16a7.4 7.4 0 0 0 .05-4.79 7.4 7.4 0 0 0-3.69-4.29 6 6 0 0 0-4.6-.34 6 6 0 0 0-3.48 3.01c-1.24 2.46.43 6.24 2.17 6.6.38.07.9.02 1.32-.25.45-.29.94-.94.74-1.48-.17-.45-.73-.65-1.15-.67-.79-.02-1.07.64-1.5.56-.74-.14-1.52-2.52-.69-4.31 1.06-2.3 4.6-3.3 6.74-2.23a6.4 6.4 0 0 1 3.19 3.71A6.4 6.4 0 0 1-5.67-.5a8.13 8.13 0 0 1-10.91 3.59 10.2 10.2 0 0 1-5.13-5.96c-.86-2.6-.65-5.39.58-7.84a13 13 0 0 1 7.52-6.48 13 13 0 0 1 9.9.74.5.5 0 0 0 .45-.9 14 14 0 0 0-10.66-.79 14 14 0 0 0-8.1 6.98 11 11 0 0 0-.73 8.29l-.11.23c0 7.16-5.81 12.98-12.97 12.98A10.3 10.3 0 0 1-46.1.06a8.13 8.13 0 0 1 8.12-8.12q.78 0 1.5.18l.24.07a6.4 6.4 0 0 1 4.66 6.14c0 2.59-2.64 4.76-5.02 5.02-1.44.16-3.27-.34-4-1.46-.07-.11-.49-.76-.26-1.13.22-.34.82-.13 1.13-.55.22-.29.17-.7.05-.96-.26-.6-1.12-.87-1.63-.66-.8.33-1.01 2.03-.57 3.18.72 1.85 3.29 2.75 5.28 2.58 2.97-.25 6.02-2.93 6.02-6.02 0-1.41-.4-2.73-1.11-3.86a5 5 0 0 0 3.24.08 5.7 5.7 0 0 0 3.41-2.82c.61-1.13.76-2.44.44-3.69a4.8 4.8 0 0 0-2.14-2.94q-.66-.4-1.37-.49c-.68-.09-1.2.04-1.48.11-.76.2-1.25.56-1.36.64-.42.3-.8.59-.96 1.12-.04.13-.24.78.12 1.23.25.29.72.48 1.04.27.4-.26.28-1 .27-1.05-.06-.37-.23-.42-.21-.59.07-.58 2.07-1.28 3.54-.48.6.33.98.85 1.11 1.02a4.2 4.2 0 0 1 .28 4.42 5 5 0 0 1-2.91 2.4 4.5 4.5 0 0 1-3.64-.48q-.19-.1-.36-.02a7 7 0 0 0-2.87-1.84c1.4-3.22 1.53-6.79.37-10.12a14 14 0 0 0-4.28-6.18q.15-.37.23-.93c2.27-7.72 9.33-11.91 15.05-10.49 4.9 1.21 9.25 6.66 8.31 11.93a8.13 8.13 0 0 1-9.43 6.56 6.4 6.4 0 0 1-5.17-7.42c.46-2.55 3.43-4.22 5.82-4.06 1.45.1 3.16.91 3.68 2.15.05.12.35.83.06 1.15s-.83-.01-1.21.35c-.26.24-.29.66-.22.93.15.64.95 1.06 1.49.94.85-.19 1.35-1.81 1.12-3.03-.38-1.94-2.75-3.28-4.74-3.47-2.96-.28-6.44 1.82-6.98 4.86a7.4 7.4 0 0 0 5.97 8.59 9.14 9.14 0 0 0 10.59-7.37 11.3 11.3 0 0 0-9.11-13.09c-2.78-.5-5.76.22-5.76.22l-.61.15c1.08-1 1.55-2.4 1.2-3.62-.46-1.57-2.17-2.51-2.44-2.28-.11.09-.07.45.7 1.74-.37.03-.47.18-.49.23-.15.28.15.83.84 1.32-.21.1-.46.27-.47.48 0 .24.3.35.42.58.15.27.11.79-.76 1.87l-.64.24c-.58.25-2.83 1.24-4.93 3.58q-.2.21-.45.51c-.55-.34-1.47-.75-1.75-.88 0 0-1.82-.84-3.99-2.38-.74-.51-2.1-1.49-3.41-3.14-.71-.89-1.9-2.41-2.46-4.72a12 12 0 0 1-.29-3.38 8.6 8.6 0 0 1 3.01-6 8.8 8.8 0 0 1 6.43-2.07 7.1 7.1 0 0 1 6.53 7.49 5.3 5.3 0 0 1-1.87 3.73 5.5 5.5 0 0 1-4.01 1.3c-2.05-.17-4.25-2.48-4.03-4.63.17-1.68 1.79-3.07 2.41-2.85.35.13.27.74.87 1.08.32.17.82.27 1.14.02.4-.31.31-1 .11-1.41-.2-.39-.56-.66-.87-.77-1.46-.52-4.36 1.51-4.52 3.86a5.2 5.2 0 0 0 1.27 3.75 5.3 5.3 0 0 0 3.57 1.8c1.7.13 3.34-.4 4.62-1.49a6.2 6.2 0 0 0 2.07-3.53c.5.57 1.78 1.86 2.99 1.63.23-.04.68-.19.68-.34-.01-.17-.61-.29-1.13-.36.4-.16.48-.25.47-.3-.03-.13-.78.04-1.48-.18a2.8 2.8 0 0 1-1.43-1.24c.04-.74.05-2.99-1.49-5.11a8.5 8.5 0 0 0-9.6-2.87 10 10 0 0 0-3.29 1.84 9.4 9.4 0 0 0-3.31 6.59q-.11 1.86.31 3.64c.61 2.47 1.88 4.1 2.65 5.07 1.16 1.47 2.27 2.34 3.34 3.18a28 28 0 0 0 5.83 3.48 13 13 0 0 0-2.2 5.46q-.09.22-.13.43-.91-.63-1.93-1.13a11.3 11.3 0 0 0-15.07 5.23 9.7 9.7 0 0 0-.07 7.74 9.4 9.4 0 0 0 4.31 4.45c.31.57.6 1.33.42 2.14-.18.83-.8 1.48-.68 1.59.04.04.17.01.58-.3-.23.56-.47 1.23-.3 1.34.15.1.56-.29.74-.48.95-1.08.38-3.1.1-3.94A7.3 7.3 0 0 0-47.45-9a7.4 7.4 0 0 0 4.23-3.77 6 6 0 0 0 .27-4.59 6 6 0 0 0-3.06-3.44c-2.48-1.21-6.24.53-6.57 2.28-.07.38-.01.9.27 1.31.3.44.95.93 1.49.71.44-.17.64-.73.65-1.15.01-.79-.65-1.07-.58-1.49.13-.75 2.5-1.56 4.3-.76 2.31 1.02 3.37 4.55 2.33 6.7a6.4 6.4 0 0 1-3.66 3.25 6.4 6.4 0 0 1-4.89-.28 8.13 8.13 0 0 1-3.77-10.85 10.24 10.24 0 0 1 13.73-4.77 13 13 0 0 1 6.6 7.42c1.09 3.14.95 6.5-.4 9.52q-.72-.15-1.47-.15A9.13 9.13 0 0 0-47.1.06c0 5.65 4.17 10.34 9.59 11.15a12 12 0 0 0-3.86 4.12 13.5 13.5 0 0 0-1.89 5.55l-.04.66c-.75 1.1-1.21 1.29-1.5 1.23-.25-.06-.43-.3-.65-.23-.19.07-.27.35-.31.57-.64-.5-1.24-.62-1.45-.4-.04.03-.14.16-.07.52-1.41-.35-1.75-.28-1.8-.16-.14.31 1.22 1.63 2.79 1.6 1.22-.02 2.37-.84 2.99-2.12l.03.6s.18 2.95 1.43 5.37a10.87 10.87 0 0 0 14.61 4.71 8.8 8.8 0 0 0 3.76-11.83 7.13 7.13 0 0 0-9.58-3.09c-2.64 1.36-3.58 5.15-2.48 7.81.73 1.77 2.64 3.58 4.53 3.38 1.18-.12 2.53-1.05 2.46-1.88-.04-.53-.65-1.15-1.28-1.11-.27.01-.65.16-.8.46-.22.45.23.88.03 1.22-.21.36-.95.28-1.08.27-1.28-.13-2.51-1.48-3.01-2.78-.83-2.16-.14-5.37 2.07-6.51a6.17 6.17 0 0 1 8.29 2.67 7.83 7.83 0 0 1-3.36 10.53 9.9 9.9 0 0 1-13.31-4.29 12.5 12.5 0 0 1 5.22-16.74 16 16 0 0 0 6.14-1.5c-.88 1.18-1.09 2.64-.53 3.78.72 1.47 2.58 2.09 2.8 1.82.09-.11-.01-.45-1-1.59.36-.1.43-.26.44-.31.1-.3-.29-.8-1.05-1.15.18-.14.4-.35.37-.56-.04-.24-.35-.29-.52-.5-.19-.24-.24-.75.43-1.97l.58-.35c.53-.35 2.57-1.72 4.22-4.39a13 13 0 0 0 1.96-5.45 11.4 11.4 0 0 0 4.9 4.82c.76.35 4.1 1.77 7.74.19A9.4 9.4 0 0 0-4.78-.05a3 3 0 0 1 2.16-.39c.82.19 1.46.83 1.57.71.04-.05.01-.18-.29-.59C-.79-.08-.11.17 0 0" style="fill:#000;fill-opacity:1;fill-rule:nonzero;stroke:none" transform="translate(51.97 143.26)"/><path d="M0 0c.1-.15-.28-.57-.48-.75-1.05-.96-3.09-.43-3.93-.16a7.4 7.4 0 0 0 .05-4.79 7.4 7.4 0 0 0-3.69-4.29 6 6 0 0 0-4.6-.34 6 6 0 0 0-3.48 3.01c-1.24 2.46.43 6.24 2.17 6.6.38.07.9.02 1.32-.25.45-.29.94-.94.74-1.48-.17-.45-.73-.65-1.15-.67-.79-.02-1.07.64-1.5.56-.74-.14-1.52-2.52-.69-4.31 1.06-2.3 4.6-3.3 6.74-2.23a6.4 6.4 0 0 1 3.19 3.71A6.4 6.4 0 0 1-5.67-.5a8.13 8.13 0 0 1-10.91 3.59 10.2 10.2 0 0 1-5.13-5.96c-.86-2.6-.65-5.39.58-7.84a13 13 0 0 1 7.52-6.48 13 13 0 0 1 9.9.74.5.5 0 0 0 .45-.9 14 14 0 0 0-10.66-.79 14 14 0 0 0-8.1 6.98 11 11 0 0 0-.73 8.29l-.11.23c0 7.16-5.81 12.98-12.97 12.98A10.3 10.3 0 0 1-46.1.06a8.13 8.13 0 0 1 8.12-8.12q.78 0 1.5.18l.24.07a6.4 6.4 0 0 1 4.66 6.14c0 2.59-2.64 4.76-5.02 5.02-1.44.16-3.27-.34-4-1.46-.07-.11-.49-.76-.26-1.13.22-.34.82-.13 1.13-.55.22-.29.17-.7.05-.96-.26-.6-1.12-.87-1.63-.66-.8.33-1.01 2.03-.57 3.18.72 1.85 3.29 2.75 5.28 2.58 2.97-.25 6.02-2.93 6.02-6.02 0-1.41-.4-2.73-1.11-3.86a5 5 0 0 0 3.24.08 5.7 5.7 0 0 0 3.41-2.82c.61-1.13.76-2.44.44-3.69a4.8 4.8 0 0 0-2.14-2.94q-.66-.4-1.37-.49c-.68-.09-1.2.04-1.48.11-.76.2-1.25.56-1.36.64-.42.3-.8.59-.96 1.12-.04.13-.24.78.12 1.23.25.29.72.48 1.04.27.4-.26.28-1 .27-1.05-.06-.37-.23-.42-.21-.59.07-.58 2.07-1.28 3.54-.48.6.33.98.85 1.11 1.02a4.2 4.2 0 0 1 .28 4.42 5 5 0 0 1-2.91 2.4 4.5 4.5 0 0 1-3.64-.48q-.19-.1-.36-.02a7 7 0 0 0-2.87-1.84c1.4-3.22 1.53-6.79.37-10.12a14 14 0 0 0-4.28-6.18q.15-.37.23-.93c2.27-7.72 9.33-11.91 15.05-10.49 4.9 1.21 9.25 6.66 8.31 11.93a8.13 8.13 0 0 1-9.43 6.56 6.4 6.4 0 0 1-5.17-7.42c.46-2.55 3.43-4.22 5.82-4.06 1.45.1 3.16.91 3.68 2.15.05.12.35.83.06 1.15s-.83-.01-1.21.35c-.26.24-.29.66-.22.93.15.64.95 1.06 1.49.94.85-.19 1.35-1.81 1.12-3.03-.38-1.94-2.75-3.28-4.74-3.47-2.96-.28-6.44 1.82-6.98 4.86a7.4 7.4 0 0 0 5.97 8.59 9.14 9.14 0 0 0 10.59-7.37 11.3 11.3 0 0 0-9.11-13.09c-2.78-.5-5.76.22-5.76.22l-.61.15c1.08-1 1.55-2.4 1.2-3.62-.46-1.57-2.17-2.51-2.44-2.28-.11.09-.07.45.7 1.74-.37.03-.47.18-.49.23-.15.28.15.83.84 1.32-.21.1-.46.27-.47.48 0 .24.3.35.42.58.15.27.11.79-.76 1.87l-.64.24c-.58.25-2.83 1.24-4.93 3.58q-.2.21-.45.51c-.55-.34-1.47-.75-1.75-.88 0 0-1.82-.84-3.99-2.38-.74-.51-2.1-1.49-3.41-3.14-.71-.89-1.9-2.41-2.46-4.72a12 12 0 0 1-.29-3.38 8.6 8.6 0 0 1 3.01-6 8.8 8.8 0 0 1 6.43-2.07 7.1 7.1 0 0 1 6.53 7.49 5.3 5.3 0 0 1-1.87 3.73 5.5 5.5 0 0 1-4.01 1.3c-2.05-.17-4.25-2.48-4.03-4.63.17-1.68 1.79-3.07 2.41-2.85.35.13.27.74.87 1.08.32.17.82.27 1.14.02.4-.31.31-1 .11-1.41-.2-.39-.56-.66-.87-.77-1.46-.52-4.36 1.51-4.52 3.86a5.2 5.2 0 0 0 1.27 3.75 5.3 5.3 0 0 0 3.57 1.8c1.7.13 3.34-.4 4.62-1.49a6.2 6.2 0 0 0 2.07-3.53c.5.57 1.78 1.86 2.99 1.63.23-.04.68-.19.68-.34-.01-.17-.61-.29-1.13-.36.4-.16.48-.25.47-.3-.03-.13-.78.04-1.48-.18a2.8 2.8 0 0 1-1.43-1.24c.04-.74.05-2.99-1.49-5.11a8.5 8.5 0 0 0-9.6-2.87 10 10 0 0 0-3.29 1.84 9.4 9.4 0 0 0-3.31 6.59q-.11 1.86.31 3.64c.61 2.47 1.88 4.1 2.65 5.07 1.16 1.47 2.27 2.34 3.34 3.18a28 28 0 0 0 5.83 3.48 13 13 0 0 0-2.2 5.46q-.09.22-.13.43-.91-.63-1.93-1.13a11.3 11.3 0 0 0-15.07 5.23 9.7 9.7 0 0 0-.07 7.74 9.4 9.4 0 0 0 4.31 4.45c.31.57.6 1.33.42 2.14-.18.83-.8 1.48-.68 1.59.04.04.17.01.58-.3-.23.56-.47 1.23-.3 1.34.15.1.56-.29.74-.48.95-1.08.38-3.1.1-3.94A7.3 7.3 0 0 0-47.45-9a7.4 7.4 0 0 0 4.23-3.77 6 6 0 0 0 .27-4.59 6 6 0 0 0-3.06-3.44c-2.48-1.21-6.24.53-6.57 2.28-.07.38-.01.9.27 1.31.3.44.95.93 1.49.71.44-.17.64-.73.65-1.15.01-.79-.65-1.07-.58-1.49.13-.75 2.5-1.56 4.3-.76 2.31 1.02 3.37 4.55 2.33 6.7a6.4 6.4 0 0 1-3.66 3.25 6.4 6.4 0 0 1-4.89-.28 8.13 8.13 0 0 1-3.77-10.85 10.24 10.24 0 0 1 13.73-4.77 13 13 0 0 1 6.6 7.42c1.09 3.14.95 6.5-.4 9.52q-.72-.15-1.47-.15A9.13 9.13 0 0 0-47.1.06c0 5.65 4.17 10.34 9.59 11.15a12 12 0 0 0-3.86 4.12 13.5 13.5 0 0 0-1.89 5.55l-.04.66c-.75 1.1-1.21 1.29-1.5 1.23-.25-.06-.43-.3-.65-.23-.19.07-.27.35-.31.57-.64-.5-1.24-.62-1.45-.4-.04.03-.14.16-.07.52-1.41-.35-1.75-.28-1.8-.16-.14.31 1.22 1.63 2.79 1.6 1.22-.02 2.37-.84 2.99-2.12l.03.6s.18 2.95 1.43 5.37a10.87 10.87 0 0 0 14.61 4.71 8.8 8.8 0 0 0 3.76-11.83 7.13 7.13 0 0 0-9.58-3.09c-2.64 1.36-3.58 5.15-2.48 7.81.73 1.77 2.64 3.58 4.53 3.38 1.18-.12 2.53-1.05 2.46-1.88-.04-.53-.65-1.15-1.28-1.11-.27.01-.65.16-.8.46-.22.45.23.88.03 1.22-.21.36-.95.28-1.08.27-1.28-.13-2.51-1.48-3.01-2.78-.83-2.16-.14-5.37 2.07-6.51a6.17 6.17 0 0 1 8.29 2.67 7.83 7.83 0 0 1-3.36 10.53 9.9 9.9 0 0 1-13.31-4.29 12.5 12.5 0 0 1 5.22-16.74 16 16 0 0 0 6.14-1.5c-.88 1.18-1.09 2.64-.53 3.78.72 1.47 2.58 2.09 2.8 1.82.09-.11-.01-.45-1-1.59.36-.1.43-.26.44-.31.1-.3-.29-.8-1.05-1.15.18-.14.4-.35.37-.56-.04-.24-.35-.29-.52-.5-.19-.24-.24-.75.43-1.97l.58-.35c.53-.35 2.57-1.72 4.22-4.39a13 13 0 0 0 1.96-5.45 11.4 11.4 0 0 0 4.9 4.82c.76.35 4.1 1.77 7.74.19A9.4 9.4 0 0 0-4.78-.05a3 3 0 0 1 2.16-.39c.82.19 1.46.83 1.57.71.04-.05.01-.18-.29-.59C-.79-.08-.11.17 0 0Z" style="fill:none;stroke:#000;stroke-opacity:1;stroke-width:.75;stroke-linecap:butt;stroke-linejoin:miter;stroke-miterlimit:10;stroke-dasharray:none" transform="translate(51.97 143.26)"/><path d="M0 0q-1.03 0-2.04.31a6.8 6.8 0 0 0-3.99 3.34 5.5 5.5 0 0 0-.38 4.22 5.5 5.5 0 0 0 2.72 3.25q.8.41 1.68.5a5 5 0 0 0 1.77-.2 5 5 0 0 0 1.62-.77c.49-.36.94-.7 1.11-1.3.04-.16.26-.9-.2-1.4-.31-.32-.9-.53-1.27-.27-.47.32-.3 1.15-.28 1.2.1.42.3.47.28.67-.06.66-2.45 1.54-4.25.68A4 4 0 0 1-4.6 9.12a5 5 0 0 1-.84-1.55 4.5 4.5 0 0 1 .3-3.46 5.8 5.8 0 0 1 3.41-2.84 5.8 5.8 0 0 1 4.42.4.5.5 0 0 0 .67-.22.5.5 0 0 0-.2-.67A7 7 0 0 0 0 0" style="fill:#000;fill-opacity:1;fill-rule:nonzero;stroke:none" transform="translate(31.43 85.72)"/><path d="M0 0q-1.03 0-2.04.31a6.8 6.8 0 0 0-3.99 3.34 5.5 5.5 0 0 0-.38 4.22 5.5 5.5 0 0 0 2.72 3.25q.8.41 1.68.5a5 5 0 0 0 1.77-.2 5 5 0 0 0 1.62-.77c.49-.36.94-.7 1.11-1.3.04-.16.26-.9-.2-1.4-.31-.32-.9-.53-1.27-.27-.47.32-.3 1.15-.28 1.2.1.42.3.47.28.67-.06.66-2.45 1.54-4.25.68A4 4 0 0 1-4.6 9.12a5 5 0 0 1-.84-1.55 4.5 4.5 0 0 1 .3-3.46 5.8 5.8 0 0 1 3.41-2.84 5.8 5.8 0 0 1 4.42.4.5.5 0 0 0 .67-.22.5.5 0 0 0-.2-.67A7 7 0 0 0 0 0Z" style="fill:none;stroke:#000;stroke-opacity:1;stroke-width:.75;stroke-linecap:butt;stroke-linejoin:miter;stroke-miterlimit:10;stroke-dasharray:none" transform="translate(31.43 85.72)"/></pattern><filter id="c" width="1" height="1" x="0" y="0" style="color-interpolation-filters:sRGB"><feColorMatrix values="0 0 0 0 0 0 0 0 0 0 0 0 0 0 0 5.42169 -0.421687 3.07229 1 0"/></filter></defs><g transform="translate(-6.68 -32.33)"><path d="M108.99 32.33H6.69v46.92h102.3Z" style="fill:url(#b);fill-opacity:1;fill-rule:nonzero;stroke:none;stroke-width:.352778;filter:url(#c)"/><rect width="102.31" height="46.92" x="6.68" y="32.33" ry="0" style="fill:#ccc;fill-opacity:.63197;stroke:none;stroke-width:36.981;stroke-linecap:round;stroke-linejoin:round;stroke-miterlimit:4;stroke-dasharray:none;paint-order:fill markers stroke"/></g></svg>